%TF.GenerationSoftware,KiCad,Pcbnew,(6.0.10)*%
%TF.CreationDate,2023-01-15T22:26:48+05:30*%
%TF.ProjectId,Learning_1,4c656172-6e69-46e6-975f-312e6b696361,rev?*%
%TF.SameCoordinates,Original*%
%TF.FileFunction,Legend,Top*%
%TF.FilePolarity,Positive*%
%FSLAX46Y46*%
G04 Gerber Fmt 4.6, Leading zero omitted, Abs format (unit mm)*
G04 Created by KiCad (PCBNEW (6.0.10)) date 2023-01-15 22:26:48*
%MOMM*%
%LPD*%
G01*
G04 APERTURE LIST*
%ADD10C,0.150000*%
%ADD11C,0.120000*%
G04 APERTURE END LIST*
D10*
X80023809Y-105352380D02*
X80023809Y-104352380D01*
X80452380Y-104447619D02*
X80500000Y-104400000D01*
X80595238Y-104352380D01*
X80833333Y-104352380D01*
X80928571Y-104400000D01*
X80976190Y-104447619D01*
X81023809Y-104542857D01*
X81023809Y-104638095D01*
X80976190Y-104780952D01*
X80404761Y-105352380D01*
X81023809Y-105352380D01*
X82023809Y-105257142D02*
X81976190Y-105304761D01*
X81833333Y-105352380D01*
X81738095Y-105352380D01*
X81595238Y-105304761D01*
X81500000Y-105209523D01*
X81452380Y-105114285D01*
X81404761Y-104923809D01*
X81404761Y-104780952D01*
X81452380Y-104590476D01*
X81500000Y-104495238D01*
X81595238Y-104400000D01*
X81738095Y-104352380D01*
X81833333Y-104352380D01*
X81976190Y-104400000D01*
X82023809Y-104447619D01*
X106838095Y-82752380D02*
X106838095Y-83561904D01*
X106885714Y-83657142D01*
X106933333Y-83704761D01*
X107028571Y-83752380D01*
X107219047Y-83752380D01*
X107314285Y-83704761D01*
X107361904Y-83657142D01*
X107409523Y-83561904D01*
X107409523Y-82752380D01*
X107838095Y-83704761D02*
X107980952Y-83752380D01*
X108219047Y-83752380D01*
X108314285Y-83704761D01*
X108361904Y-83657142D01*
X108409523Y-83561904D01*
X108409523Y-83466666D01*
X108361904Y-83371428D01*
X108314285Y-83323809D01*
X108219047Y-83276190D01*
X108028571Y-83228571D01*
X107933333Y-83180952D01*
X107885714Y-83133333D01*
X107838095Y-83038095D01*
X107838095Y-82942857D01*
X107885714Y-82847619D01*
X107933333Y-82800000D01*
X108028571Y-82752380D01*
X108266666Y-82752380D01*
X108409523Y-82800000D01*
X109171428Y-83228571D02*
X109314285Y-83276190D01*
X109361904Y-83323809D01*
X109409523Y-83419047D01*
X109409523Y-83561904D01*
X109361904Y-83657142D01*
X109314285Y-83704761D01*
X109219047Y-83752380D01*
X108838095Y-83752380D01*
X108838095Y-82752380D01*
X109171428Y-82752380D01*
X109266666Y-82800000D01*
X109314285Y-82847619D01*
X109361904Y-82942857D01*
X109361904Y-83038095D01*
X109314285Y-83133333D01*
X109266666Y-83180952D01*
X109171428Y-83228571D01*
X108838095Y-83228571D01*
X77204761Y-75852380D02*
X77204761Y-76661904D01*
X77252380Y-76757142D01*
X77300000Y-76804761D01*
X77395238Y-76852380D01*
X77585714Y-76852380D01*
X77680952Y-76804761D01*
X77728571Y-76757142D01*
X77776190Y-76661904D01*
X77776190Y-75852380D01*
X78204761Y-76566666D02*
X78680952Y-76566666D01*
X78109523Y-76852380D02*
X78442857Y-75852380D01*
X78776190Y-76852380D01*
X79680952Y-76852380D02*
X79347619Y-76376190D01*
X79109523Y-76852380D02*
X79109523Y-75852380D01*
X79490476Y-75852380D01*
X79585714Y-75900000D01*
X79633333Y-75947619D01*
X79680952Y-76042857D01*
X79680952Y-76185714D01*
X79633333Y-76280952D01*
X79585714Y-76328571D01*
X79490476Y-76376190D01*
X79109523Y-76376190D01*
X79966666Y-75852380D02*
X80538095Y-75852380D01*
X80252380Y-76852380D02*
X80252380Y-75852380D01*
X96442857Y-80304761D02*
X96585714Y-80352380D01*
X96823809Y-80352380D01*
X96919047Y-80304761D01*
X96966666Y-80257142D01*
X97014285Y-80161904D01*
X97014285Y-80066666D01*
X96966666Y-79971428D01*
X96919047Y-79923809D01*
X96823809Y-79876190D01*
X96633333Y-79828571D01*
X96538095Y-79780952D01*
X96490476Y-79733333D01*
X96442857Y-79638095D01*
X96442857Y-79542857D01*
X96490476Y-79447619D01*
X96538095Y-79400000D01*
X96633333Y-79352380D01*
X96871428Y-79352380D01*
X97014285Y-79400000D01*
X97347619Y-79352380D02*
X97585714Y-80352380D01*
X97776190Y-79638095D01*
X97966666Y-80352380D01*
X98204761Y-79352380D01*
X98585714Y-80352380D02*
X98585714Y-79352380D01*
X98823809Y-79352380D01*
X98966666Y-79400000D01*
X99061904Y-79495238D01*
X99109523Y-79590476D01*
X99157142Y-79780952D01*
X99157142Y-79923809D01*
X99109523Y-80114285D01*
X99061904Y-80209523D01*
X98966666Y-80304761D01*
X98823809Y-80352380D01*
X98585714Y-80352380D01*
%TO.C,C3*%
X81236333Y-85860142D02*
X81188714Y-85907761D01*
X81045857Y-85955380D01*
X80950619Y-85955380D01*
X80807761Y-85907761D01*
X80712523Y-85812523D01*
X80664904Y-85717285D01*
X80617285Y-85526809D01*
X80617285Y-85383952D01*
X80664904Y-85193476D01*
X80712523Y-85098238D01*
X80807761Y-85003000D01*
X80950619Y-84955380D01*
X81045857Y-84955380D01*
X81188714Y-85003000D01*
X81236333Y-85050619D01*
X81569666Y-84955380D02*
X82188714Y-84955380D01*
X81855380Y-85336333D01*
X81998238Y-85336333D01*
X82093476Y-85383952D01*
X82141095Y-85431571D01*
X82188714Y-85526809D01*
X82188714Y-85764904D01*
X82141095Y-85860142D01*
X82093476Y-85907761D01*
X81998238Y-85955380D01*
X81712523Y-85955380D01*
X81617285Y-85907761D01*
X81569666Y-85860142D01*
%TO.C,R3*%
X100233333Y-86952380D02*
X99900000Y-86476190D01*
X99661904Y-86952380D02*
X99661904Y-85952380D01*
X100042857Y-85952380D01*
X100138095Y-86000000D01*
X100185714Y-86047619D01*
X100233333Y-86142857D01*
X100233333Y-86285714D01*
X100185714Y-86380952D01*
X100138095Y-86428571D01*
X100042857Y-86476190D01*
X99661904Y-86476190D01*
X100566666Y-85952380D02*
X101185714Y-85952380D01*
X100852380Y-86333333D01*
X100995238Y-86333333D01*
X101090476Y-86380952D01*
X101138095Y-86428571D01*
X101185714Y-86523809D01*
X101185714Y-86761904D01*
X101138095Y-86857142D01*
X101090476Y-86904761D01*
X100995238Y-86952380D01*
X100709523Y-86952380D01*
X100614285Y-86904761D01*
X100566666Y-86857142D01*
%TO.C,H1*%
X75692095Y-78684380D02*
X75692095Y-77684380D01*
X75692095Y-78160571D02*
X76263523Y-78160571D01*
X76263523Y-78684380D02*
X76263523Y-77684380D01*
X77263523Y-78684380D02*
X76692095Y-78684380D01*
X76977809Y-78684380D02*
X76977809Y-77684380D01*
X76882571Y-77827238D01*
X76787333Y-77922476D01*
X76692095Y-77970095D01*
%TO.C,C2*%
X84201333Y-84457142D02*
X84153714Y-84504761D01*
X84010857Y-84552380D01*
X83915619Y-84552380D01*
X83772761Y-84504761D01*
X83677523Y-84409523D01*
X83629904Y-84314285D01*
X83582285Y-84123809D01*
X83582285Y-83980952D01*
X83629904Y-83790476D01*
X83677523Y-83695238D01*
X83772761Y-83600000D01*
X83915619Y-83552380D01*
X84010857Y-83552380D01*
X84153714Y-83600000D01*
X84201333Y-83647619D01*
X84582285Y-83647619D02*
X84629904Y-83600000D01*
X84725142Y-83552380D01*
X84963238Y-83552380D01*
X85058476Y-83600000D01*
X85106095Y-83647619D01*
X85153714Y-83742857D01*
X85153714Y-83838095D01*
X85106095Y-83980952D01*
X84534666Y-84552380D01*
X85153714Y-84552380D01*
%TO.C,H2*%
X107569095Y-81986380D02*
X107569095Y-80986380D01*
X107569095Y-81462571D02*
X108140523Y-81462571D01*
X108140523Y-81986380D02*
X108140523Y-80986380D01*
X108569095Y-81081619D02*
X108616714Y-81034000D01*
X108711952Y-80986380D01*
X108950047Y-80986380D01*
X109045285Y-81034000D01*
X109092904Y-81081619D01*
X109140523Y-81176857D01*
X109140523Y-81272095D01*
X109092904Y-81414952D01*
X108521476Y-81986380D01*
X109140523Y-81986380D01*
%TO.C,R2*%
X107633333Y-95852380D02*
X107300000Y-95376190D01*
X107061904Y-95852380D02*
X107061904Y-94852380D01*
X107442857Y-94852380D01*
X107538095Y-94900000D01*
X107585714Y-94947619D01*
X107633333Y-95042857D01*
X107633333Y-95185714D01*
X107585714Y-95280952D01*
X107538095Y-95328571D01*
X107442857Y-95376190D01*
X107061904Y-95376190D01*
X108014285Y-94947619D02*
X108061904Y-94900000D01*
X108157142Y-94852380D01*
X108395238Y-94852380D01*
X108490476Y-94900000D01*
X108538095Y-94947619D01*
X108585714Y-95042857D01*
X108585714Y-95138095D01*
X108538095Y-95280952D01*
X107966666Y-95852380D01*
X108585714Y-95852380D01*
%TO.C,C10*%
X94988142Y-94337142D02*
X94940523Y-94384761D01*
X94797666Y-94432380D01*
X94702428Y-94432380D01*
X94559571Y-94384761D01*
X94464333Y-94289523D01*
X94416714Y-94194285D01*
X94369095Y-94003809D01*
X94369095Y-93860952D01*
X94416714Y-93670476D01*
X94464333Y-93575238D01*
X94559571Y-93480000D01*
X94702428Y-93432380D01*
X94797666Y-93432380D01*
X94940523Y-93480000D01*
X94988142Y-93527619D01*
X95940523Y-94432380D02*
X95369095Y-94432380D01*
X95654809Y-94432380D02*
X95654809Y-93432380D01*
X95559571Y-93575238D01*
X95464333Y-93670476D01*
X95369095Y-93718095D01*
X96559571Y-93432380D02*
X96654809Y-93432380D01*
X96750047Y-93480000D01*
X96797666Y-93527619D01*
X96845285Y-93622857D01*
X96892904Y-93813333D01*
X96892904Y-94051428D01*
X96845285Y-94241904D01*
X96797666Y-94337142D01*
X96750047Y-94384761D01*
X96654809Y-94432380D01*
X96559571Y-94432380D01*
X96464333Y-94384761D01*
X96416714Y-94337142D01*
X96369095Y-94241904D01*
X96321476Y-94051428D01*
X96321476Y-93813333D01*
X96369095Y-93622857D01*
X96416714Y-93527619D01*
X96464333Y-93480000D01*
X96559571Y-93432380D01*
%TO.C,H4*%
X103632095Y-105735380D02*
X103632095Y-104735380D01*
X103632095Y-105211571D02*
X104203523Y-105211571D01*
X104203523Y-105735380D02*
X104203523Y-104735380D01*
X105108285Y-105068714D02*
X105108285Y-105735380D01*
X104870190Y-104687761D02*
X104632095Y-105402047D01*
X105251142Y-105402047D01*
%TO.C,C12*%
X79657142Y-88057142D02*
X79609523Y-88104761D01*
X79466666Y-88152380D01*
X79371428Y-88152380D01*
X79228571Y-88104761D01*
X79133333Y-88009523D01*
X79085714Y-87914285D01*
X79038095Y-87723809D01*
X79038095Y-87580952D01*
X79085714Y-87390476D01*
X79133333Y-87295238D01*
X79228571Y-87200000D01*
X79371428Y-87152380D01*
X79466666Y-87152380D01*
X79609523Y-87200000D01*
X79657142Y-87247619D01*
X80609523Y-88152380D02*
X80038095Y-88152380D01*
X80323809Y-88152380D02*
X80323809Y-87152380D01*
X80228571Y-87295238D01*
X80133333Y-87390476D01*
X80038095Y-87438095D01*
X80990476Y-87247619D02*
X81038095Y-87200000D01*
X81133333Y-87152380D01*
X81371428Y-87152380D01*
X81466666Y-87200000D01*
X81514285Y-87247619D01*
X81561904Y-87342857D01*
X81561904Y-87438095D01*
X81514285Y-87580952D01*
X80942857Y-88152380D01*
X81561904Y-88152380D01*
%TO.C,C1*%
X83807333Y-82630142D02*
X83759714Y-82677761D01*
X83616857Y-82725380D01*
X83521619Y-82725380D01*
X83378761Y-82677761D01*
X83283523Y-82582523D01*
X83235904Y-82487285D01*
X83188285Y-82296809D01*
X83188285Y-82153952D01*
X83235904Y-81963476D01*
X83283523Y-81868238D01*
X83378761Y-81773000D01*
X83521619Y-81725380D01*
X83616857Y-81725380D01*
X83759714Y-81773000D01*
X83807333Y-81820619D01*
X84759714Y-82725380D02*
X84188285Y-82725380D01*
X84474000Y-82725380D02*
X84474000Y-81725380D01*
X84378761Y-81868238D01*
X84283523Y-81963476D01*
X84188285Y-82011095D01*
%TO.C,J1*%
X104916666Y-82702380D02*
X104916666Y-83416666D01*
X104869047Y-83559523D01*
X104773809Y-83654761D01*
X104630952Y-83702380D01*
X104535714Y-83702380D01*
X105916666Y-83702380D02*
X105345238Y-83702380D01*
X105630952Y-83702380D02*
X105630952Y-82702380D01*
X105535714Y-82845238D01*
X105440476Y-82940476D01*
X105345238Y-82988095D01*
%TO.C,R4*%
X88352333Y-99004380D02*
X88019000Y-98528190D01*
X87780904Y-99004380D02*
X87780904Y-98004380D01*
X88161857Y-98004380D01*
X88257095Y-98052000D01*
X88304714Y-98099619D01*
X88352333Y-98194857D01*
X88352333Y-98337714D01*
X88304714Y-98432952D01*
X88257095Y-98480571D01*
X88161857Y-98528190D01*
X87780904Y-98528190D01*
X89209476Y-98337714D02*
X89209476Y-99004380D01*
X88971380Y-97956761D02*
X88733285Y-98671047D01*
X89352333Y-98671047D01*
%TO.C,J2*%
X89204666Y-79519380D02*
X89204666Y-80233666D01*
X89157047Y-80376523D01*
X89061809Y-80471761D01*
X88918952Y-80519380D01*
X88823714Y-80519380D01*
X89633238Y-79614619D02*
X89680857Y-79567000D01*
X89776095Y-79519380D01*
X90014190Y-79519380D01*
X90109428Y-79567000D01*
X90157047Y-79614619D01*
X90204666Y-79709857D01*
X90204666Y-79805095D01*
X90157047Y-79947952D01*
X89585619Y-80519380D01*
X90204666Y-80519380D01*
%TO.C,J4*%
X92084666Y-102339380D02*
X92084666Y-103053666D01*
X92037047Y-103196523D01*
X91941809Y-103291761D01*
X91798952Y-103339380D01*
X91703714Y-103339380D01*
X92989428Y-102672714D02*
X92989428Y-103339380D01*
X92751333Y-102291761D02*
X92513238Y-103006047D01*
X93132285Y-103006047D01*
%TO.C,C13*%
X78605142Y-94083142D02*
X78557523Y-94130761D01*
X78414666Y-94178380D01*
X78319428Y-94178380D01*
X78176571Y-94130761D01*
X78081333Y-94035523D01*
X78033714Y-93940285D01*
X77986095Y-93749809D01*
X77986095Y-93606952D01*
X78033714Y-93416476D01*
X78081333Y-93321238D01*
X78176571Y-93226000D01*
X78319428Y-93178380D01*
X78414666Y-93178380D01*
X78557523Y-93226000D01*
X78605142Y-93273619D01*
X79557523Y-94178380D02*
X78986095Y-94178380D01*
X79271809Y-94178380D02*
X79271809Y-93178380D01*
X79176571Y-93321238D01*
X79081333Y-93416476D01*
X78986095Y-93464095D01*
X79890857Y-93178380D02*
X80509904Y-93178380D01*
X80176571Y-93559333D01*
X80319428Y-93559333D01*
X80414666Y-93606952D01*
X80462285Y-93654571D01*
X80509904Y-93749809D01*
X80509904Y-93987904D01*
X80462285Y-94083142D01*
X80414666Y-94130761D01*
X80319428Y-94178380D01*
X80033714Y-94178380D01*
X79938476Y-94130761D01*
X79890857Y-94083142D01*
%TO.C,C11*%
X103624142Y-97131142D02*
X103576523Y-97178761D01*
X103433666Y-97226380D01*
X103338428Y-97226380D01*
X103195571Y-97178761D01*
X103100333Y-97083523D01*
X103052714Y-96988285D01*
X103005095Y-96797809D01*
X103005095Y-96654952D01*
X103052714Y-96464476D01*
X103100333Y-96369238D01*
X103195571Y-96274000D01*
X103338428Y-96226380D01*
X103433666Y-96226380D01*
X103576523Y-96274000D01*
X103624142Y-96321619D01*
X104576523Y-97226380D02*
X104005095Y-97226380D01*
X104290809Y-97226380D02*
X104290809Y-96226380D01*
X104195571Y-96369238D01*
X104100333Y-96464476D01*
X104005095Y-96512095D01*
X105528904Y-97226380D02*
X104957476Y-97226380D01*
X105243190Y-97226380D02*
X105243190Y-96226380D01*
X105147952Y-96369238D01*
X105052714Y-96464476D01*
X104957476Y-96512095D01*
%TO.C,C5*%
X95733333Y-86357142D02*
X95685714Y-86404761D01*
X95542857Y-86452380D01*
X95447619Y-86452380D01*
X95304761Y-86404761D01*
X95209523Y-86309523D01*
X95161904Y-86214285D01*
X95114285Y-86023809D01*
X95114285Y-85880952D01*
X95161904Y-85690476D01*
X95209523Y-85595238D01*
X95304761Y-85500000D01*
X95447619Y-85452380D01*
X95542857Y-85452380D01*
X95685714Y-85500000D01*
X95733333Y-85547619D01*
X96638095Y-85452380D02*
X96161904Y-85452380D01*
X96114285Y-85928571D01*
X96161904Y-85880952D01*
X96257142Y-85833333D01*
X96495238Y-85833333D01*
X96590476Y-85880952D01*
X96638095Y-85928571D01*
X96685714Y-86023809D01*
X96685714Y-86261904D01*
X96638095Y-86357142D01*
X96590476Y-86404761D01*
X96495238Y-86452380D01*
X96257142Y-86452380D01*
X96161904Y-86404761D01*
X96114285Y-86357142D01*
%TO.C,R1*%
X76733333Y-85252380D02*
X76400000Y-84776190D01*
X76161904Y-85252380D02*
X76161904Y-84252380D01*
X76542857Y-84252380D01*
X76638095Y-84300000D01*
X76685714Y-84347619D01*
X76733333Y-84442857D01*
X76733333Y-84585714D01*
X76685714Y-84680952D01*
X76638095Y-84728571D01*
X76542857Y-84776190D01*
X76161904Y-84776190D01*
X77685714Y-85252380D02*
X77114285Y-85252380D01*
X77400000Y-85252380D02*
X77400000Y-84252380D01*
X77304761Y-84395238D01*
X77209523Y-84490476D01*
X77114285Y-84538095D01*
%TO.C,C6*%
X82533333Y-93157142D02*
X82485714Y-93204761D01*
X82342857Y-93252380D01*
X82247619Y-93252380D01*
X82104761Y-93204761D01*
X82009523Y-93109523D01*
X81961904Y-93014285D01*
X81914285Y-92823809D01*
X81914285Y-92680952D01*
X81961904Y-92490476D01*
X82009523Y-92395238D01*
X82104761Y-92300000D01*
X82247619Y-92252380D01*
X82342857Y-92252380D01*
X82485714Y-92300000D01*
X82533333Y-92347619D01*
X83390476Y-92252380D02*
X83200000Y-92252380D01*
X83104761Y-92300000D01*
X83057142Y-92347619D01*
X82961904Y-92490476D01*
X82914285Y-92680952D01*
X82914285Y-93061904D01*
X82961904Y-93157142D01*
X83009523Y-93204761D01*
X83104761Y-93252380D01*
X83295238Y-93252380D01*
X83390476Y-93204761D01*
X83438095Y-93157142D01*
X83485714Y-93061904D01*
X83485714Y-92823809D01*
X83438095Y-92728571D01*
X83390476Y-92680952D01*
X83295238Y-92633333D01*
X83104761Y-92633333D01*
X83009523Y-92680952D01*
X82961904Y-92728571D01*
X82914285Y-92823809D01*
%TO.C,D1*%
X106788904Y-102165380D02*
X106788904Y-101165380D01*
X107027000Y-101165380D01*
X107169857Y-101213000D01*
X107265095Y-101308238D01*
X107312714Y-101403476D01*
X107360333Y-101593952D01*
X107360333Y-101736809D01*
X107312714Y-101927285D01*
X107265095Y-102022523D01*
X107169857Y-102117761D01*
X107027000Y-102165380D01*
X106788904Y-102165380D01*
X108312714Y-102165380D02*
X107741285Y-102165380D01*
X108027000Y-102165380D02*
X108027000Y-101165380D01*
X107931761Y-101308238D01*
X107836523Y-101403476D01*
X107741285Y-101451095D01*
%TO.C,U1*%
X103505095Y-102449380D02*
X103505095Y-103258904D01*
X103552714Y-103354142D01*
X103600333Y-103401761D01*
X103695571Y-103449380D01*
X103886047Y-103449380D01*
X103981285Y-103401761D01*
X104028904Y-103354142D01*
X104076523Y-103258904D01*
X104076523Y-102449380D01*
X105076523Y-103449380D02*
X104505095Y-103449380D01*
X104790809Y-103449380D02*
X104790809Y-102449380D01*
X104695571Y-102592238D01*
X104600333Y-102687476D01*
X104505095Y-102735095D01*
%TO.C,SW1*%
X71174666Y-91742761D02*
X71317523Y-91790380D01*
X71555619Y-91790380D01*
X71650857Y-91742761D01*
X71698476Y-91695142D01*
X71746095Y-91599904D01*
X71746095Y-91504666D01*
X71698476Y-91409428D01*
X71650857Y-91361809D01*
X71555619Y-91314190D01*
X71365142Y-91266571D01*
X71269904Y-91218952D01*
X71222285Y-91171333D01*
X71174666Y-91076095D01*
X71174666Y-90980857D01*
X71222285Y-90885619D01*
X71269904Y-90838000D01*
X71365142Y-90790380D01*
X71603238Y-90790380D01*
X71746095Y-90838000D01*
X72079428Y-90790380D02*
X72317523Y-91790380D01*
X72508000Y-91076095D01*
X72698476Y-91790380D01*
X72936571Y-90790380D01*
X73841333Y-91790380D02*
X73269904Y-91790380D01*
X73555619Y-91790380D02*
X73555619Y-90790380D01*
X73460380Y-90933238D01*
X73365142Y-91028476D01*
X73269904Y-91076095D01*
%TO.C,U2*%
X88538095Y-83772380D02*
X88538095Y-84581904D01*
X88585714Y-84677142D01*
X88633333Y-84724761D01*
X88728571Y-84772380D01*
X88919047Y-84772380D01*
X89014285Y-84724761D01*
X89061904Y-84677142D01*
X89109523Y-84581904D01*
X89109523Y-83772380D01*
X89538095Y-83867619D02*
X89585714Y-83820000D01*
X89680952Y-83772380D01*
X89919047Y-83772380D01*
X90014285Y-83820000D01*
X90061904Y-83867619D01*
X90109523Y-83962857D01*
X90109523Y-84058095D01*
X90061904Y-84200952D01*
X89490476Y-84772380D01*
X90109523Y-84772380D01*
%TO.C,FB1*%
X83875666Y-98861571D02*
X83542333Y-98861571D01*
X83542333Y-99385380D02*
X83542333Y-98385380D01*
X84018523Y-98385380D01*
X84732809Y-98861571D02*
X84875666Y-98909190D01*
X84923285Y-98956809D01*
X84970904Y-99052047D01*
X84970904Y-99194904D01*
X84923285Y-99290142D01*
X84875666Y-99337761D01*
X84780428Y-99385380D01*
X84399476Y-99385380D01*
X84399476Y-98385380D01*
X84732809Y-98385380D01*
X84828047Y-98433000D01*
X84875666Y-98480619D01*
X84923285Y-98575857D01*
X84923285Y-98671095D01*
X84875666Y-98766333D01*
X84828047Y-98813952D01*
X84732809Y-98861571D01*
X84399476Y-98861571D01*
X85923285Y-99385380D02*
X85351857Y-99385380D01*
X85637571Y-99385380D02*
X85637571Y-98385380D01*
X85542333Y-98528238D01*
X85447095Y-98623476D01*
X85351857Y-98671095D01*
%TO.C,C9*%
X86701333Y-97766142D02*
X86653714Y-97813761D01*
X86510857Y-97861380D01*
X86415619Y-97861380D01*
X86272761Y-97813761D01*
X86177523Y-97718523D01*
X86129904Y-97623285D01*
X86082285Y-97432809D01*
X86082285Y-97289952D01*
X86129904Y-97099476D01*
X86177523Y-97004238D01*
X86272761Y-96909000D01*
X86415619Y-96861380D01*
X86510857Y-96861380D01*
X86653714Y-96909000D01*
X86701333Y-96956619D01*
X87177523Y-97861380D02*
X87368000Y-97861380D01*
X87463238Y-97813761D01*
X87510857Y-97766142D01*
X87606095Y-97623285D01*
X87653714Y-97432809D01*
X87653714Y-97051857D01*
X87606095Y-96956619D01*
X87558476Y-96909000D01*
X87463238Y-96861380D01*
X87272761Y-96861380D01*
X87177523Y-96909000D01*
X87129904Y-96956619D01*
X87082285Y-97051857D01*
X87082285Y-97289952D01*
X87129904Y-97385190D01*
X87177523Y-97432809D01*
X87272761Y-97480428D01*
X87463238Y-97480428D01*
X87558476Y-97432809D01*
X87606095Y-97385190D01*
X87653714Y-97289952D01*
%TO.C,Y1*%
X74961809Y-93575190D02*
X74961809Y-94051380D01*
X74628476Y-93051380D02*
X74961809Y-93575190D01*
X75295142Y-93051380D01*
X76152285Y-94051380D02*
X75580857Y-94051380D01*
X75866571Y-94051380D02*
X75866571Y-93051380D01*
X75771333Y-93194238D01*
X75676095Y-93289476D01*
X75580857Y-93337095D01*
%TO.C,C7*%
X84033333Y-94557142D02*
X83985714Y-94604761D01*
X83842857Y-94652380D01*
X83747619Y-94652380D01*
X83604761Y-94604761D01*
X83509523Y-94509523D01*
X83461904Y-94414285D01*
X83414285Y-94223809D01*
X83414285Y-94080952D01*
X83461904Y-93890476D01*
X83509523Y-93795238D01*
X83604761Y-93700000D01*
X83747619Y-93652380D01*
X83842857Y-93652380D01*
X83985714Y-93700000D01*
X84033333Y-93747619D01*
X84366666Y-93652380D02*
X85033333Y-93652380D01*
X84604761Y-94652380D01*
%TO.C,J3*%
X101629666Y-79519380D02*
X101629666Y-80233666D01*
X101582047Y-80376523D01*
X101486809Y-80471761D01*
X101343952Y-80519380D01*
X101248714Y-80519380D01*
X102010619Y-79519380D02*
X102629666Y-79519380D01*
X102296333Y-79900333D01*
X102439190Y-79900333D01*
X102534428Y-79947952D01*
X102582047Y-79995571D01*
X102629666Y-80090809D01*
X102629666Y-80328904D01*
X102582047Y-80424142D01*
X102534428Y-80471761D01*
X102439190Y-80519380D01*
X102153476Y-80519380D01*
X102058238Y-80471761D01*
X102010619Y-80424142D01*
%TO.C,H3*%
X71882095Y-102408380D02*
X71882095Y-101408380D01*
X71882095Y-101884571D02*
X72453523Y-101884571D01*
X72453523Y-102408380D02*
X72453523Y-101408380D01*
X72834476Y-101408380D02*
X73453523Y-101408380D01*
X73120190Y-101789333D01*
X73263047Y-101789333D01*
X73358285Y-101836952D01*
X73405904Y-101884571D01*
X73453523Y-101979809D01*
X73453523Y-102217904D01*
X73405904Y-102313142D01*
X73358285Y-102360761D01*
X73263047Y-102408380D01*
X72977333Y-102408380D01*
X72882095Y-102360761D01*
X72834476Y-102313142D01*
%TO.C,R5*%
X90638333Y-98977380D02*
X90305000Y-98501190D01*
X90066904Y-98977380D02*
X90066904Y-97977380D01*
X90447857Y-97977380D01*
X90543095Y-98025000D01*
X90590714Y-98072619D01*
X90638333Y-98167857D01*
X90638333Y-98310714D01*
X90590714Y-98405952D01*
X90543095Y-98453571D01*
X90447857Y-98501190D01*
X90066904Y-98501190D01*
X91543095Y-97977380D02*
X91066904Y-97977380D01*
X91019285Y-98453571D01*
X91066904Y-98405952D01*
X91162142Y-98358333D01*
X91400238Y-98358333D01*
X91495476Y-98405952D01*
X91543095Y-98453571D01*
X91590714Y-98548809D01*
X91590714Y-98786904D01*
X91543095Y-98882142D01*
X91495476Y-98929761D01*
X91400238Y-98977380D01*
X91162142Y-98977380D01*
X91066904Y-98929761D01*
X91019285Y-98882142D01*
%TO.C,C8*%
X82002333Y-97385142D02*
X81954714Y-97432761D01*
X81811857Y-97480380D01*
X81716619Y-97480380D01*
X81573761Y-97432761D01*
X81478523Y-97337523D01*
X81430904Y-97242285D01*
X81383285Y-97051809D01*
X81383285Y-96908952D01*
X81430904Y-96718476D01*
X81478523Y-96623238D01*
X81573761Y-96528000D01*
X81716619Y-96480380D01*
X81811857Y-96480380D01*
X81954714Y-96528000D01*
X82002333Y-96575619D01*
X82573761Y-96908952D02*
X82478523Y-96861333D01*
X82430904Y-96813714D01*
X82383285Y-96718476D01*
X82383285Y-96670857D01*
X82430904Y-96575619D01*
X82478523Y-96528000D01*
X82573761Y-96480380D01*
X82764238Y-96480380D01*
X82859476Y-96528000D01*
X82907095Y-96575619D01*
X82954714Y-96670857D01*
X82954714Y-96718476D01*
X82907095Y-96813714D01*
X82859476Y-96861333D01*
X82764238Y-96908952D01*
X82573761Y-96908952D01*
X82478523Y-96956571D01*
X82430904Y-97004190D01*
X82383285Y-97099428D01*
X82383285Y-97289904D01*
X82430904Y-97385142D01*
X82478523Y-97432761D01*
X82573761Y-97480380D01*
X82764238Y-97480380D01*
X82859476Y-97432761D01*
X82907095Y-97385142D01*
X82954714Y-97289904D01*
X82954714Y-97099428D01*
X82907095Y-97004190D01*
X82859476Y-96956571D01*
X82764238Y-96908952D01*
%TO.C,C4*%
X91233333Y-97617142D02*
X91185714Y-97664761D01*
X91042857Y-97712380D01*
X90947619Y-97712380D01*
X90804761Y-97664761D01*
X90709523Y-97569523D01*
X90661904Y-97474285D01*
X90614285Y-97283809D01*
X90614285Y-97140952D01*
X90661904Y-96950476D01*
X90709523Y-96855238D01*
X90804761Y-96760000D01*
X90947619Y-96712380D01*
X91042857Y-96712380D01*
X91185714Y-96760000D01*
X91233333Y-96807619D01*
X92090476Y-97045714D02*
X92090476Y-97712380D01*
X91852380Y-96664761D02*
X91614285Y-97379047D01*
X92233333Y-97379047D01*
D11*
%TO.C,C3*%
X83160000Y-87007836D02*
X83160000Y-86792164D01*
X82440000Y-87007836D02*
X82440000Y-86792164D01*
%TO.C,R3*%
X101120000Y-88046359D02*
X101120000Y-88353641D01*
X101880000Y-88046359D02*
X101880000Y-88353641D01*
%TO.C,C2*%
X86292164Y-83740000D02*
X86507836Y-83740000D01*
X86292164Y-84460000D02*
X86507836Y-84460000D01*
%TO.C,R2*%
X107646359Y-96980000D02*
X107953641Y-96980000D01*
X107646359Y-96220000D02*
X107953641Y-96220000D01*
%TO.C,C10*%
X98798748Y-94461000D02*
X99321252Y-94461000D01*
X98798748Y-92991000D02*
X99321252Y-92991000D01*
%TO.C,C12*%
X79777000Y-89300164D02*
X79777000Y-89515836D01*
X80497000Y-89300164D02*
X80497000Y-89515836D01*
%TO.C,C1*%
X86259420Y-82910000D02*
X86540580Y-82910000D01*
X86259420Y-81890000D02*
X86540580Y-81890000D01*
D10*
%TO.C,J1*%
X107750000Y-84750000D02*
X106350000Y-84750000D01*
X104600000Y-87100000D02*
X104600000Y-86100000D01*
X110300000Y-84750000D02*
X110150000Y-84750000D01*
X110300000Y-93050000D02*
X110300000Y-92750000D01*
X104600000Y-90700000D02*
X104600000Y-91700000D01*
X106350000Y-93050000D02*
X107750000Y-93050000D01*
X104175000Y-89975000D02*
X104175000Y-90700000D01*
X110300000Y-92750000D02*
X110750000Y-92750000D01*
X110150000Y-93050000D02*
X110300000Y-93050000D01*
X110750000Y-85050000D02*
X110300000Y-85050000D01*
X110300000Y-85050000D02*
X110300000Y-84750000D01*
X104175000Y-90700000D02*
X104600000Y-90700000D01*
D11*
%TO.C,R4*%
X88418641Y-99315000D02*
X88111359Y-99315000D01*
X88418641Y-100075000D02*
X88111359Y-100075000D01*
%TO.C,J2*%
X89030000Y-76070000D02*
X81350000Y-76070000D01*
X81350000Y-76070000D02*
X81350000Y-78730000D01*
X90300000Y-76070000D02*
X91630000Y-76070000D01*
X89030000Y-76070000D02*
X89030000Y-78730000D01*
X89030000Y-78730000D02*
X81350000Y-78730000D01*
X91630000Y-76070000D02*
X91630000Y-77400000D01*
%TO.C,J4*%
X85570000Y-106630000D02*
X93250000Y-106630000D01*
X85570000Y-106630000D02*
X85570000Y-103970000D01*
X84300000Y-106630000D02*
X82970000Y-106630000D01*
X82970000Y-106630000D02*
X82970000Y-105300000D01*
X85570000Y-103970000D02*
X93250000Y-103970000D01*
X93250000Y-106630000D02*
X93250000Y-103970000D01*
%TO.C,C13*%
X79777000Y-91801836D02*
X79777000Y-91586164D01*
X80497000Y-91801836D02*
X80497000Y-91586164D01*
%TO.C,C11*%
X103405000Y-99448252D02*
X103405000Y-98925748D01*
X104875000Y-99448252D02*
X104875000Y-98925748D01*
%TO.C,C5*%
X95356000Y-87522164D02*
X95356000Y-87737836D01*
X94636000Y-87522164D02*
X94636000Y-87737836D01*
%TO.C,R1*%
X75780000Y-86153641D02*
X75780000Y-85846359D01*
X75020000Y-86153641D02*
X75020000Y-85846359D01*
%TO.C,C6*%
X82440000Y-91307836D02*
X82440000Y-91092164D01*
X83160000Y-91307836D02*
X83160000Y-91092164D01*
%TO.C,D1*%
X106665000Y-97815000D02*
X106665000Y-100100000D01*
X108135000Y-100100000D02*
X108135000Y-97815000D01*
X108135000Y-97815000D02*
X106665000Y-97815000D01*
%TO.C,U1*%
X102597000Y-101351000D02*
X101337000Y-101351000D01*
X95777000Y-101351000D02*
X97037000Y-101351000D01*
X95777000Y-97591000D02*
X95777000Y-101351000D01*
X102597000Y-95341000D02*
X102597000Y-101351000D01*
%TO.C,SW1*%
X70270000Y-82900000D02*
X70270000Y-88600000D01*
X73120000Y-84150000D02*
X73120000Y-85850000D01*
X71280000Y-89200000D02*
X72070000Y-89200000D01*
X72070000Y-82300000D02*
X71280000Y-82300000D01*
X73120000Y-87150000D02*
X73120000Y-87350000D01*
%TO.C,U2*%
X92060000Y-93780000D02*
X92510000Y-93780000D01*
X85290000Y-87010000D02*
X84000000Y-87010000D01*
X85290000Y-86560000D02*
X85290000Y-87010000D01*
X92510000Y-93780000D02*
X92510000Y-93330000D01*
X92510000Y-86560000D02*
X92510000Y-87010000D01*
X92060000Y-86560000D02*
X92510000Y-86560000D01*
X85290000Y-93780000D02*
X85290000Y-93330000D01*
X85740000Y-93780000D02*
X85290000Y-93780000D01*
X85740000Y-86560000D02*
X85290000Y-86560000D01*
%TO.C,FB1*%
X85092000Y-96682779D02*
X85092000Y-96357221D01*
X84072000Y-96682779D02*
X84072000Y-96357221D01*
%TO.C,C9*%
X86760164Y-95906000D02*
X86975836Y-95906000D01*
X86760164Y-96626000D02*
X86975836Y-96626000D01*
%TO.C,Y1*%
X75820000Y-88678000D02*
X75820000Y-92678000D01*
X79120000Y-88678000D02*
X75820000Y-88678000D01*
%TO.C,C7*%
X82403836Y-94594000D02*
X82188164Y-94594000D01*
X82403836Y-93874000D02*
X82188164Y-93874000D01*
%TO.C,J3*%
X93130000Y-76070000D02*
X93130000Y-78730000D01*
X100810000Y-78730000D02*
X93130000Y-78730000D01*
X100810000Y-76070000D02*
X93130000Y-76070000D01*
X100810000Y-76070000D02*
X100810000Y-78730000D01*
X103410000Y-76070000D02*
X103410000Y-77400000D01*
X102080000Y-76070000D02*
X103410000Y-76070000D01*
%TO.C,R5*%
X90651359Y-100075000D02*
X90958641Y-100075000D01*
X90651359Y-99315000D02*
X90958641Y-99315000D01*
%TO.C,C8*%
X82403836Y-95271000D02*
X82188164Y-95271000D01*
X82403836Y-95991000D02*
X82188164Y-95991000D01*
%TO.C,C4*%
X91507836Y-95740000D02*
X91292164Y-95740000D01*
X91507836Y-96460000D02*
X91292164Y-96460000D01*
%TD*%
M02*
