%TF.GenerationSoftware,KiCad,Pcbnew,(6.0.10)*%
%TF.CreationDate,2023-01-15T22:26:48+05:30*%
%TF.ProjectId,Learning_1,4c656172-6e69-46e6-975f-312e6b696361,rev?*%
%TF.SameCoordinates,Original*%
%TF.FileFunction,Paste,Top*%
%TF.FilePolarity,Positive*%
%FSLAX46Y46*%
G04 Gerber Fmt 4.6, Leading zero omitted, Abs format (unit mm)*
G04 Created by KiCad (PCBNEW (6.0.10)) date 2023-01-15 22:26:48*
%MOMM*%
%LPD*%
G01*
G04 APERTURE LIST*
G04 Aperture macros list*
%AMRoundRect*
0 Rectangle with rounded corners*
0 $1 Rounding radius*
0 $2 $3 $4 $5 $6 $7 $8 $9 X,Y pos of 4 corners*
0 Add a 4 corners polygon primitive as box body*
4,1,4,$2,$3,$4,$5,$6,$7,$8,$9,$2,$3,0*
0 Add four circle primitives for the rounded corners*
1,1,$1+$1,$2,$3*
1,1,$1+$1,$4,$5*
1,1,$1+$1,$6,$7*
1,1,$1+$1,$8,$9*
0 Add four rect primitives between the rounded corners*
20,1,$1+$1,$2,$3,$4,$5,0*
20,1,$1+$1,$4,$5,$6,$7,0*
20,1,$1+$1,$6,$7,$8,$9,0*
20,1,$1+$1,$8,$9,$2,$3,0*%
G04 Aperture macros list end*
%ADD10RoundRect,0.140000X0.170000X-0.140000X0.170000X0.140000X-0.170000X0.140000X-0.170000X-0.140000X0*%
%ADD11RoundRect,0.135000X-0.185000X0.135000X-0.185000X-0.135000X0.185000X-0.135000X0.185000X0.135000X0*%
%ADD12RoundRect,0.140000X-0.140000X-0.170000X0.140000X-0.170000X0.140000X0.170000X-0.140000X0.170000X0*%
%ADD13RoundRect,0.135000X-0.135000X-0.185000X0.135000X-0.185000X0.135000X0.185000X-0.135000X0.185000X0*%
%ADD14RoundRect,0.250000X-0.250000X-0.475000X0.250000X-0.475000X0.250000X0.475000X-0.250000X0.475000X0*%
%ADD15RoundRect,0.140000X-0.170000X0.140000X-0.170000X-0.140000X0.170000X-0.140000X0.170000X0.140000X0*%
%ADD16RoundRect,0.225000X-0.225000X-0.250000X0.225000X-0.250000X0.225000X0.250000X-0.225000X0.250000X0*%
%ADD17R,1.300000X0.450000*%
%ADD18RoundRect,0.135000X0.135000X0.185000X-0.135000X0.185000X-0.135000X-0.185000X0.135000X-0.185000X0*%
%ADD19RoundRect,0.250000X0.475000X-0.250000X0.475000X0.250000X-0.475000X0.250000X-0.475000X-0.250000X0*%
%ADD20RoundRect,0.135000X0.185000X-0.135000X0.185000X0.135000X-0.185000X0.135000X-0.185000X-0.135000X0*%
%ADD21RoundRect,0.218750X-0.256250X0.218750X-0.256250X-0.218750X0.256250X-0.218750X0.256250X0.218750X0*%
%ADD22R,1.500000X2.000000*%
%ADD23R,3.800000X2.000000*%
%ADD24R,0.800000X1.000000*%
%ADD25R,1.500000X0.700000*%
%ADD26RoundRect,0.075000X-0.662500X-0.075000X0.662500X-0.075000X0.662500X0.075000X-0.662500X0.075000X0*%
%ADD27RoundRect,0.075000X-0.075000X-0.662500X0.075000X-0.662500X0.075000X0.662500X-0.075000X0.662500X0*%
%ADD28RoundRect,0.218750X0.256250X-0.218750X0.256250X0.218750X-0.256250X0.218750X-0.256250X-0.218750X0*%
%ADD29R,1.200000X1.400000*%
%ADD30RoundRect,0.140000X0.140000X0.170000X-0.140000X0.170000X-0.140000X-0.170000X0.140000X-0.170000X0*%
G04 APERTURE END LIST*
D10*
%TO.C,C3*%
X82800000Y-87380000D03*
X82800000Y-86420000D03*
%TD*%
D11*
%TO.C,R3*%
X101500000Y-87690000D03*
X101500000Y-88710000D03*
%TD*%
D12*
%TO.C,C2*%
X85920000Y-84100000D03*
X86880000Y-84100000D03*
%TD*%
D13*
%TO.C,R2*%
X107290000Y-96600000D03*
X108310000Y-96600000D03*
%TD*%
D14*
%TO.C,C10*%
X98110000Y-93726000D03*
X100010000Y-93726000D03*
%TD*%
D15*
%TO.C,C12*%
X80137000Y-88928000D03*
X80137000Y-89888000D03*
%TD*%
D16*
%TO.C,C1*%
X85625000Y-82400000D03*
X87175000Y-82400000D03*
%TD*%
D17*
%TO.C,J1*%
X105100000Y-90200000D03*
X105100000Y-89550000D03*
X105100000Y-88900000D03*
X105100000Y-88250000D03*
X105100000Y-87600000D03*
%TD*%
D18*
%TO.C,R4*%
X88775000Y-99695000D03*
X87755000Y-99695000D03*
%TD*%
D10*
%TO.C,C13*%
X80137000Y-92174000D03*
X80137000Y-91214000D03*
%TD*%
D19*
%TO.C,C11*%
X104140000Y-100137000D03*
X104140000Y-98237000D03*
%TD*%
D15*
%TO.C,C5*%
X94996000Y-87150000D03*
X94996000Y-88110000D03*
%TD*%
D20*
%TO.C,R1*%
X75400000Y-86510000D03*
X75400000Y-85490000D03*
%TD*%
D10*
%TO.C,C6*%
X82800000Y-91680000D03*
X82800000Y-90720000D03*
%TD*%
D21*
%TO.C,D1*%
X107400000Y-98512500D03*
X107400000Y-100087500D03*
%TD*%
D22*
%TO.C,U1*%
X101487000Y-96291000D03*
D23*
X99187000Y-102591000D03*
D22*
X99187000Y-96291000D03*
X96887000Y-96291000D03*
%TD*%
D24*
%TO.C,SW1*%
X70570000Y-82100000D03*
X72780000Y-82100000D03*
X70570000Y-89400000D03*
X72780000Y-89400000D03*
D25*
X73430000Y-83500000D03*
X73430000Y-86500000D03*
X73430000Y-88000000D03*
%TD*%
D26*
%TO.C,U2*%
X84737500Y-87420000D03*
X84737500Y-87920000D03*
X84737500Y-88420000D03*
X84737500Y-88920000D03*
X84737500Y-89420000D03*
X84737500Y-89920000D03*
X84737500Y-90420000D03*
X84737500Y-90920000D03*
X84737500Y-91420000D03*
X84737500Y-91920000D03*
X84737500Y-92420000D03*
X84737500Y-92920000D03*
D27*
X86150000Y-94332500D03*
X86650000Y-94332500D03*
X87150000Y-94332500D03*
X87650000Y-94332500D03*
X88150000Y-94332500D03*
X88650000Y-94332500D03*
X89150000Y-94332500D03*
X89650000Y-94332500D03*
X90150000Y-94332500D03*
X90650000Y-94332500D03*
X91150000Y-94332500D03*
X91650000Y-94332500D03*
D26*
X93062500Y-92920000D03*
X93062500Y-92420000D03*
X93062500Y-91920000D03*
X93062500Y-91420000D03*
X93062500Y-90920000D03*
X93062500Y-90420000D03*
X93062500Y-89920000D03*
X93062500Y-89420000D03*
X93062500Y-88920000D03*
X93062500Y-88420000D03*
X93062500Y-87920000D03*
X93062500Y-87420000D03*
D27*
X91650000Y-86007500D03*
X91150000Y-86007500D03*
X90650000Y-86007500D03*
X90150000Y-86007500D03*
X89650000Y-86007500D03*
X89150000Y-86007500D03*
X88650000Y-86007500D03*
X88150000Y-86007500D03*
X87650000Y-86007500D03*
X87150000Y-86007500D03*
X86650000Y-86007500D03*
X86150000Y-86007500D03*
%TD*%
D28*
%TO.C,FB1*%
X84582000Y-97307500D03*
X84582000Y-95732500D03*
%TD*%
D12*
%TO.C,C9*%
X86388000Y-96266000D03*
X87348000Y-96266000D03*
%TD*%
D29*
%TO.C,Y1*%
X76620000Y-89578000D03*
X76620000Y-91778000D03*
X78320000Y-91778000D03*
X78320000Y-89578000D03*
%TD*%
D30*
%TO.C,C7*%
X82776000Y-94234000D03*
X81816000Y-94234000D03*
%TD*%
D13*
%TO.C,R5*%
X90295000Y-99695000D03*
X91315000Y-99695000D03*
%TD*%
D30*
%TO.C,C8*%
X82776000Y-95631000D03*
X81816000Y-95631000D03*
%TD*%
%TO.C,C4*%
X91880000Y-96100000D03*
X90920000Y-96100000D03*
%TD*%
M02*
