%TF.GenerationSoftware,KiCad,Pcbnew,(6.0.10)*%
%TF.CreationDate,2023-01-15T22:26:48+05:30*%
%TF.ProjectId,Learning_1,4c656172-6e69-46e6-975f-312e6b696361,rev?*%
%TF.SameCoordinates,Original*%
%TF.FileFunction,Copper,L2,Bot*%
%TF.FilePolarity,Positive*%
%FSLAX46Y46*%
G04 Gerber Fmt 4.6, Leading zero omitted, Abs format (unit mm)*
G04 Created by KiCad (PCBNEW (6.0.10)) date 2023-01-15 22:26:48*
%MOMM*%
%LPD*%
G01*
G04 APERTURE LIST*
%TA.AperFunction,ComponentPad*%
%ADD10O,2.000000X1.450000*%
%TD*%
%TA.AperFunction,ComponentPad*%
%ADD11O,1.800000X1.150000*%
%TD*%
%TA.AperFunction,ComponentPad*%
%ADD12R,1.700000X1.700000*%
%TD*%
%TA.AperFunction,ComponentPad*%
%ADD13O,1.700000X1.700000*%
%TD*%
%TA.AperFunction,ViaPad*%
%ADD14C,0.800000*%
%TD*%
%TA.AperFunction,Conductor*%
%ADD15C,0.500000*%
%TD*%
G04 APERTURE END LIST*
D10*
%TO.P,J1,6,Shield*%
%TO.N,unconnected-(J1-Pad6)*%
X105150000Y-92625000D03*
D11*
X108950000Y-92775000D03*
D10*
X105150000Y-85175000D03*
D11*
X108950000Y-85025000D03*
%TD*%
D12*
%TO.P,J2,1,Pin_1*%
%TO.N,+3.3V*%
X90300000Y-77400000D03*
D13*
%TO.P,J2,2,Pin_2*%
%TO.N,/USART1_TX*%
X87760000Y-77400000D03*
%TO.P,J2,3,Pin_3*%
%TO.N,/USART1_RX*%
X85220000Y-77400000D03*
%TO.P,J2,4,Pin_4*%
%TO.N,GND*%
X82680000Y-77400000D03*
%TD*%
D12*
%TO.P,J4,1,Pin_1*%
%TO.N,+3.3V*%
X84300000Y-105300000D03*
D13*
%TO.P,J4,2,Pin_2*%
%TO.N,/I2C2_SCL*%
X86840000Y-105300000D03*
%TO.P,J4,3,Pin_3*%
%TO.N,/I2C2_SDA*%
X89380000Y-105300000D03*
%TO.P,J4,4,Pin_4*%
%TO.N,GND*%
X91920000Y-105300000D03*
%TD*%
D12*
%TO.P,J3,1,Pin_1*%
%TO.N,+3.3V*%
X102080000Y-77400000D03*
D13*
%TO.P,J3,2,Pin_2*%
%TO.N,/SWDIO*%
X99540000Y-77400000D03*
%TO.P,J3,3,Pin_3*%
%TO.N,/SWCLK*%
X97000000Y-77400000D03*
%TO.P,J3,4,Pin_4*%
%TO.N,GND*%
X94460000Y-77400000D03*
%TD*%
D14*
%TO.N,+3.3V*%
X90300000Y-101000000D03*
X92100000Y-101000000D03*
X95100000Y-81300000D03*
X86900000Y-100800000D03*
X92300000Y-81300000D03*
X87400000Y-81300000D03*
X96500000Y-81300000D03*
X99400000Y-81300000D03*
X90600000Y-81300000D03*
X88775000Y-100825000D03*
%TO.N,GND*%
X101100000Y-97900000D03*
X103100000Y-87600000D03*
X82800000Y-85400000D03*
X96000000Y-88100000D03*
X80900000Y-95600000D03*
X88300000Y-96200000D03*
X102000000Y-97900000D03*
X86700000Y-87500000D03*
X109500000Y-96600000D03*
X74000000Y-82400000D03*
X101300000Y-94200000D03*
X101300000Y-93200000D03*
X91100000Y-92900000D03*
X78000000Y-88000000D03*
X105500000Y-98300000D03*
X86200000Y-90900000D03*
X81100000Y-89900000D03*
%TD*%
D15*
%TO.N,+3.3V*%
X88750000Y-100800000D02*
X86900000Y-100800000D01*
X88775000Y-100825000D02*
X88750000Y-100800000D01*
X92100000Y-101000000D02*
X90300000Y-101000000D01*
X87400000Y-81300000D02*
X90600000Y-81300000D01*
X92300000Y-81300000D02*
X94700000Y-81300000D01*
X94700000Y-81300000D02*
X95100000Y-81300000D01*
X96500000Y-81300000D02*
X98800000Y-81300000D01*
X98800000Y-81300000D02*
X99400000Y-81300000D01*
%TD*%
%TA.AperFunction,Conductor*%
%TO.N,GND*%
G36*
X108165624Y-75483983D02*
G01*
X108185384Y-75485854D01*
X108193313Y-75487252D01*
X108193316Y-75487252D01*
X108204000Y-75489136D01*
X108214685Y-75487252D01*
X108224339Y-75487252D01*
X108238278Y-75486425D01*
X108342473Y-75492277D01*
X108504670Y-75501386D01*
X108518488Y-75502943D01*
X108808508Y-75552219D01*
X108822064Y-75555313D01*
X109104753Y-75636754D01*
X109117875Y-75641345D01*
X109221928Y-75684445D01*
X109389661Y-75753923D01*
X109402189Y-75759956D01*
X109659669Y-75902260D01*
X109671443Y-75909659D01*
X109911352Y-76079884D01*
X109922224Y-76088553D01*
X110141583Y-76284584D01*
X110151416Y-76294417D01*
X110347447Y-76513776D01*
X110356116Y-76524648D01*
X110526341Y-76764557D01*
X110533740Y-76776331D01*
X110676044Y-77033811D01*
X110682077Y-77046339D01*
X110743696Y-77195100D01*
X110789160Y-77304859D01*
X110794653Y-77318121D01*
X110799246Y-77331247D01*
X110880687Y-77613936D01*
X110883781Y-77627492D01*
X110933057Y-77917512D01*
X110934614Y-77931330D01*
X110942552Y-78072667D01*
X110947490Y-78160588D01*
X110949575Y-78197720D01*
X110948748Y-78211661D01*
X110948748Y-78221315D01*
X110946864Y-78232000D01*
X110948915Y-78243633D01*
X110949616Y-78247606D01*
X110951500Y-78269139D01*
X110951500Y-105118861D01*
X110949616Y-105140391D01*
X110946864Y-105156000D01*
X110948748Y-105166685D01*
X110948748Y-105176339D01*
X110949575Y-105190278D01*
X110947253Y-105231625D01*
X110934614Y-105456670D01*
X110933057Y-105470488D01*
X110883781Y-105760508D01*
X110880687Y-105774064D01*
X110799246Y-106056753D01*
X110794655Y-106069875D01*
X110787414Y-106087355D01*
X110682077Y-106341661D01*
X110676044Y-106354189D01*
X110533740Y-106611669D01*
X110526341Y-106623443D01*
X110356116Y-106863352D01*
X110347447Y-106874224D01*
X110151416Y-107093583D01*
X110141583Y-107103416D01*
X109922224Y-107299447D01*
X109911352Y-107308116D01*
X109671443Y-107478341D01*
X109659669Y-107485740D01*
X109402189Y-107628044D01*
X109389661Y-107634077D01*
X109221928Y-107703555D01*
X109117875Y-107746655D01*
X109104753Y-107751246D01*
X108822064Y-107832687D01*
X108808508Y-107835781D01*
X108518488Y-107885057D01*
X108504670Y-107886614D01*
X108342473Y-107895723D01*
X108238278Y-107901575D01*
X108224339Y-107900748D01*
X108214685Y-107900748D01*
X108204000Y-107898864D01*
X108188391Y-107901616D01*
X108166861Y-107903500D01*
X72681139Y-107903500D01*
X72659609Y-107901616D01*
X72644000Y-107898864D01*
X72633315Y-107900748D01*
X72623661Y-107900748D01*
X72609722Y-107901575D01*
X72505527Y-107895723D01*
X72343330Y-107886614D01*
X72329512Y-107885057D01*
X72039492Y-107835781D01*
X72025936Y-107832687D01*
X71743247Y-107751246D01*
X71730125Y-107746655D01*
X71626072Y-107703555D01*
X71458339Y-107634077D01*
X71445811Y-107628044D01*
X71188331Y-107485740D01*
X71176557Y-107478341D01*
X70936648Y-107308116D01*
X70925776Y-107299447D01*
X70706417Y-107103416D01*
X70696584Y-107093583D01*
X70500553Y-106874224D01*
X70491884Y-106863352D01*
X70321659Y-106623443D01*
X70314260Y-106611669D01*
X70171956Y-106354189D01*
X70165923Y-106341661D01*
X70060586Y-106087355D01*
X70053345Y-106069875D01*
X70048754Y-106056753D01*
X69967313Y-105774064D01*
X69964219Y-105760508D01*
X69914943Y-105470488D01*
X69913386Y-105456670D01*
X69900747Y-105231625D01*
X69898425Y-105190278D01*
X69899252Y-105176339D01*
X69899252Y-105166685D01*
X69901136Y-105156000D01*
X69899252Y-105145316D01*
X69899252Y-105145311D01*
X69897684Y-105136418D01*
X69895822Y-105117226D01*
X69895304Y-105089789D01*
X71239996Y-105089789D01*
X71248913Y-105327295D01*
X71249990Y-105332430D01*
X71249991Y-105332435D01*
X71295641Y-105550000D01*
X71297719Y-105559904D01*
X71299648Y-105564788D01*
X71299649Y-105564792D01*
X71303727Y-105575118D01*
X71385020Y-105780963D01*
X71387741Y-105785447D01*
X71387743Y-105785451D01*
X71455233Y-105896670D01*
X71508319Y-105984153D01*
X71664090Y-106163664D01*
X71847880Y-106314362D01*
X71852441Y-106316958D01*
X71852442Y-106316959D01*
X72049875Y-106429345D01*
X72049880Y-106429347D01*
X72054433Y-106431939D01*
X72277844Y-106513034D01*
X72511725Y-106555326D01*
X72536619Y-106556500D01*
X72703680Y-106556500D01*
X72706296Y-106556278D01*
X72706297Y-106556278D01*
X72875590Y-106541913D01*
X72880823Y-106541469D01*
X73110874Y-106481760D01*
X73327576Y-106384143D01*
X73524732Y-106251409D01*
X73584235Y-106194646D01*
X83149500Y-106194646D01*
X83152618Y-106220846D01*
X83198061Y-106323153D01*
X83277287Y-106402241D01*
X83287758Y-106406870D01*
X83287759Y-106406871D01*
X83371147Y-106443737D01*
X83371149Y-106443738D01*
X83379673Y-106447506D01*
X83405354Y-106450500D01*
X85194646Y-106450500D01*
X85198300Y-106450065D01*
X85198302Y-106450065D01*
X85203266Y-106449474D01*
X85220846Y-106447382D01*
X85323153Y-106401939D01*
X85402241Y-106322713D01*
X85406871Y-106312241D01*
X85443737Y-106228853D01*
X85443738Y-106228851D01*
X85447506Y-106220327D01*
X85450500Y-106194646D01*
X85450500Y-105480300D01*
X85470185Y-105413261D01*
X85522989Y-105367506D01*
X85592147Y-105357562D01*
X85655703Y-105386587D01*
X85693477Y-105445365D01*
X85698234Y-105472190D01*
X85698423Y-105475072D01*
X85698425Y-105475082D01*
X85698796Y-105480749D01*
X85750845Y-105685690D01*
X85753219Y-105690841D01*
X85753221Y-105690845D01*
X85790908Y-105772594D01*
X85839369Y-105877714D01*
X85874986Y-105928111D01*
X85914593Y-105984153D01*
X85961405Y-106050391D01*
X85965476Y-106054357D01*
X85965477Y-106054358D01*
X86003072Y-106090981D01*
X86112865Y-106197937D01*
X86117588Y-106201093D01*
X86117592Y-106201096D01*
X86187471Y-106247787D01*
X86288677Y-106315411D01*
X86482953Y-106398878D01*
X86518277Y-106406871D01*
X86683638Y-106444289D01*
X86683642Y-106444290D01*
X86689186Y-106445544D01*
X86815315Y-106450500D01*
X86894789Y-106453623D01*
X86894791Y-106453623D01*
X86900470Y-106453846D01*
X86906090Y-106453031D01*
X86906092Y-106453031D01*
X87104103Y-106424320D01*
X87104104Y-106424320D01*
X87109730Y-106423504D01*
X87128588Y-106417103D01*
X87304565Y-106357367D01*
X87304568Y-106357366D01*
X87309955Y-106355537D01*
X87314916Y-106352759D01*
X87314922Y-106352756D01*
X87421530Y-106293052D01*
X87494442Y-106252219D01*
X87532165Y-106220846D01*
X87652645Y-106120644D01*
X87657012Y-106117012D01*
X87701565Y-106063442D01*
X87788584Y-105958813D01*
X87788585Y-105958811D01*
X87792219Y-105954442D01*
X87886859Y-105785451D01*
X87892756Y-105774922D01*
X87892759Y-105774916D01*
X87895537Y-105769955D01*
X87911232Y-105723721D01*
X87961675Y-105575118D01*
X87963504Y-105569730D01*
X87965726Y-105554404D01*
X87987820Y-105402033D01*
X88016921Y-105338512D01*
X88070225Y-105304346D01*
X88150974Y-105304346D01*
X88204347Y-105338736D01*
X88233296Y-105402327D01*
X88234271Y-105411707D01*
X88238796Y-105480749D01*
X88290845Y-105685690D01*
X88293219Y-105690841D01*
X88293221Y-105690845D01*
X88330908Y-105772594D01*
X88379369Y-105877714D01*
X88414986Y-105928111D01*
X88454593Y-105984153D01*
X88501405Y-106050391D01*
X88505476Y-106054357D01*
X88505477Y-106054358D01*
X88543072Y-106090981D01*
X88652865Y-106197937D01*
X88657588Y-106201093D01*
X88657592Y-106201096D01*
X88727471Y-106247787D01*
X88828677Y-106315411D01*
X89022953Y-106398878D01*
X89058277Y-106406871D01*
X89223638Y-106444289D01*
X89223642Y-106444290D01*
X89229186Y-106445544D01*
X89355315Y-106450500D01*
X89434789Y-106453623D01*
X89434791Y-106453623D01*
X89440470Y-106453846D01*
X89446090Y-106453031D01*
X89446092Y-106453031D01*
X89644103Y-106424320D01*
X89644104Y-106424320D01*
X89649730Y-106423504D01*
X89668588Y-106417103D01*
X89844565Y-106357367D01*
X89844568Y-106357366D01*
X89849955Y-106355537D01*
X89854916Y-106352759D01*
X89854922Y-106352756D01*
X89961530Y-106293052D01*
X90034442Y-106252219D01*
X90072165Y-106220846D01*
X90192645Y-106120644D01*
X90197012Y-106117012D01*
X90241565Y-106063442D01*
X90328584Y-105958813D01*
X90328585Y-105958811D01*
X90332219Y-105954442D01*
X90434059Y-105772594D01*
X90483990Y-105723721D01*
X90552418Y-105709601D01*
X90617617Y-105734717D01*
X90654630Y-105780778D01*
X90744110Y-105972667D01*
X90749508Y-105982017D01*
X90878784Y-106166643D01*
X90885719Y-106174907D01*
X91045091Y-106334279D01*
X91053357Y-106341215D01*
X91237992Y-106470498D01*
X91247324Y-106475886D01*
X91451603Y-106571143D01*
X91461736Y-106574832D01*
X91652779Y-106626022D01*
X91666653Y-106625691D01*
X91670000Y-106617875D01*
X91670000Y-106612806D01*
X92170000Y-106612806D01*
X92173910Y-106626123D01*
X92182326Y-106627333D01*
X92378264Y-106574832D01*
X92388397Y-106571143D01*
X92592676Y-106475886D01*
X92602008Y-106470498D01*
X92786643Y-106341215D01*
X92794909Y-106334279D01*
X92954281Y-106174907D01*
X92961216Y-106166643D01*
X93090492Y-105982017D01*
X93095890Y-105972667D01*
X93191143Y-105768397D01*
X93194832Y-105758264D01*
X93246022Y-105567221D01*
X93245691Y-105553347D01*
X93237875Y-105550000D01*
X92187830Y-105550000D01*
X92172831Y-105554404D01*
X92171644Y-105555774D01*
X92170000Y-105563332D01*
X92170000Y-106612806D01*
X91670000Y-106612806D01*
X91670000Y-105089789D01*
X106799996Y-105089789D01*
X106808913Y-105327295D01*
X106809990Y-105332430D01*
X106809991Y-105332435D01*
X106855641Y-105550000D01*
X106857719Y-105559904D01*
X106859648Y-105564788D01*
X106859649Y-105564792D01*
X106863727Y-105575118D01*
X106945020Y-105780963D01*
X106947741Y-105785447D01*
X106947743Y-105785451D01*
X107015233Y-105896670D01*
X107068319Y-105984153D01*
X107224090Y-106163664D01*
X107407880Y-106314362D01*
X107412441Y-106316958D01*
X107412442Y-106316959D01*
X107609875Y-106429345D01*
X107609880Y-106429347D01*
X107614433Y-106431939D01*
X107837844Y-106513034D01*
X108071725Y-106555326D01*
X108096619Y-106556500D01*
X108263680Y-106556500D01*
X108266296Y-106556278D01*
X108266297Y-106556278D01*
X108435590Y-106541913D01*
X108440823Y-106541469D01*
X108670874Y-106481760D01*
X108887576Y-106384143D01*
X109084732Y-106251409D01*
X109256705Y-106087355D01*
X109398579Y-105896670D01*
X109420707Y-105853148D01*
X109503913Y-105689493D01*
X109503915Y-105689488D01*
X109506295Y-105684807D01*
X109542807Y-105567221D01*
X109575215Y-105462848D01*
X109576775Y-105457824D01*
X109577466Y-105452612D01*
X109607315Y-105227412D01*
X109607315Y-105227408D01*
X109608004Y-105222211D01*
X109599087Y-104984705D01*
X109580272Y-104895029D01*
X109551361Y-104757242D01*
X109551360Y-104757239D01*
X109550281Y-104752096D01*
X109526443Y-104691733D01*
X109464908Y-104535920D01*
X109462980Y-104531037D01*
X109458109Y-104523009D01*
X109342408Y-104332341D01*
X109339681Y-104327847D01*
X109239780Y-104212720D01*
X109187356Y-104152307D01*
X109187355Y-104152306D01*
X109183910Y-104148336D01*
X109000120Y-103997638D01*
X108959137Y-103974309D01*
X108798125Y-103882655D01*
X108798120Y-103882653D01*
X108793567Y-103880061D01*
X108570156Y-103798966D01*
X108336275Y-103756674D01*
X108311381Y-103755500D01*
X108144320Y-103755500D01*
X108141704Y-103755722D01*
X108141703Y-103755722D01*
X108130484Y-103756674D01*
X107967177Y-103770531D01*
X107737126Y-103830240D01*
X107520424Y-103927857D01*
X107323268Y-104060591D01*
X107151295Y-104224645D01*
X107009421Y-104415330D01*
X107007042Y-104420008D01*
X107007042Y-104420009D01*
X106906388Y-104617983D01*
X106901705Y-104627193D01*
X106900146Y-104632213D01*
X106900145Y-104632216D01*
X106881665Y-104691733D01*
X106831225Y-104854176D01*
X106830534Y-104859386D01*
X106830534Y-104859388D01*
X106803226Y-105065422D01*
X106799996Y-105089789D01*
X91670000Y-105089789D01*
X91670000Y-105032170D01*
X92170000Y-105032170D01*
X92174404Y-105047169D01*
X92175774Y-105048356D01*
X92183332Y-105050000D01*
X93232806Y-105050000D01*
X93246123Y-105046090D01*
X93247333Y-105037674D01*
X93194832Y-104841736D01*
X93191143Y-104831603D01*
X93095890Y-104627333D01*
X93090492Y-104617983D01*
X92961216Y-104433357D01*
X92954281Y-104425093D01*
X92794909Y-104265721D01*
X92786643Y-104258785D01*
X92602008Y-104129502D01*
X92592676Y-104124114D01*
X92388397Y-104028857D01*
X92378264Y-104025168D01*
X92187221Y-103973978D01*
X92173347Y-103974309D01*
X92170000Y-103982125D01*
X92170000Y-105032170D01*
X91670000Y-105032170D01*
X91670000Y-103987194D01*
X91666090Y-103973877D01*
X91657674Y-103972667D01*
X91461736Y-104025168D01*
X91451603Y-104028857D01*
X91247333Y-104124110D01*
X91237983Y-104129508D01*
X91053357Y-104258784D01*
X91045093Y-104265719D01*
X90885719Y-104425093D01*
X90878784Y-104433357D01*
X90749508Y-104617983D01*
X90744110Y-104627333D01*
X90652664Y-104823438D01*
X90606491Y-104875877D01*
X90539298Y-104895029D01*
X90472417Y-104874813D01*
X90429071Y-104825878D01*
X90365165Y-104696290D01*
X90238651Y-104526867D01*
X90234481Y-104523012D01*
X90234478Y-104523009D01*
X90128552Y-104425093D01*
X90083381Y-104383337D01*
X90077574Y-104379673D01*
X89909363Y-104273539D01*
X89909361Y-104273538D01*
X89904554Y-104270505D01*
X89708160Y-104192152D01*
X89702579Y-104191042D01*
X89702576Y-104191041D01*
X89604467Y-104171526D01*
X89500775Y-104150901D01*
X89495088Y-104150827D01*
X89495083Y-104150826D01*
X89295034Y-104148207D01*
X89295029Y-104148207D01*
X89289346Y-104148133D01*
X89283742Y-104149096D01*
X89283741Y-104149096D01*
X89086550Y-104182979D01*
X89086547Y-104182980D01*
X89080953Y-104183941D01*
X88882575Y-104257127D01*
X88877697Y-104260029D01*
X88877695Y-104260030D01*
X88705740Y-104362332D01*
X88705737Y-104362334D01*
X88700856Y-104365238D01*
X88541881Y-104504655D01*
X88538362Y-104509119D01*
X88538359Y-104509122D01*
X88479731Y-104583492D01*
X88410976Y-104670708D01*
X88312523Y-104857836D01*
X88310837Y-104863267D01*
X88310835Y-104863271D01*
X88306921Y-104875877D01*
X88249820Y-105059773D01*
X88232851Y-105203140D01*
X88205425Y-105267398D01*
X88150974Y-105304346D01*
X88070225Y-105304346D01*
X88070667Y-105304063D01*
X88018057Y-105272081D01*
X87987453Y-105209271D01*
X87986232Y-105199909D01*
X87976601Y-105095100D01*
X87976081Y-105089440D01*
X87918686Y-104885931D01*
X87825165Y-104696290D01*
X87698651Y-104526867D01*
X87694481Y-104523012D01*
X87694478Y-104523009D01*
X87588552Y-104425093D01*
X87543381Y-104383337D01*
X87537574Y-104379673D01*
X87369363Y-104273539D01*
X87369361Y-104273538D01*
X87364554Y-104270505D01*
X87168160Y-104192152D01*
X87162579Y-104191042D01*
X87162576Y-104191041D01*
X87064467Y-104171526D01*
X86960775Y-104150901D01*
X86955088Y-104150827D01*
X86955083Y-104150826D01*
X86755034Y-104148207D01*
X86755029Y-104148207D01*
X86749346Y-104148133D01*
X86743742Y-104149096D01*
X86743741Y-104149096D01*
X86546550Y-104182979D01*
X86546547Y-104182980D01*
X86540953Y-104183941D01*
X86342575Y-104257127D01*
X86337697Y-104260029D01*
X86337695Y-104260030D01*
X86165740Y-104362332D01*
X86165737Y-104362334D01*
X86160856Y-104365238D01*
X86001881Y-104504655D01*
X85998362Y-104509119D01*
X85998359Y-104509122D01*
X85939731Y-104583492D01*
X85870976Y-104670708D01*
X85772523Y-104857836D01*
X85770837Y-104863267D01*
X85770835Y-104863271D01*
X85766921Y-104875877D01*
X85709820Y-105059773D01*
X85709152Y-105065418D01*
X85709151Y-105065422D01*
X85697640Y-105162681D01*
X85670213Y-105226942D01*
X85612397Y-105266173D01*
X85542549Y-105267919D01*
X85482845Y-105231625D01*
X85452241Y-105168814D01*
X85450500Y-105148106D01*
X85450500Y-104405354D01*
X85447382Y-104379154D01*
X85401939Y-104276847D01*
X85322713Y-104197759D01*
X85312242Y-104193130D01*
X85312241Y-104193129D01*
X85228853Y-104156263D01*
X85228851Y-104156262D01*
X85220327Y-104152494D01*
X85194646Y-104149500D01*
X83405354Y-104149500D01*
X83401700Y-104149935D01*
X83401698Y-104149935D01*
X83396734Y-104150526D01*
X83379154Y-104152618D01*
X83276847Y-104198061D01*
X83197759Y-104277287D01*
X83193130Y-104287758D01*
X83193129Y-104287759D01*
X83158876Y-104365238D01*
X83152494Y-104379673D01*
X83149500Y-104405354D01*
X83149500Y-106194646D01*
X73584235Y-106194646D01*
X73696705Y-106087355D01*
X73838579Y-105896670D01*
X73860707Y-105853148D01*
X73943913Y-105689493D01*
X73943915Y-105689488D01*
X73946295Y-105684807D01*
X73982807Y-105567221D01*
X74015215Y-105462848D01*
X74016775Y-105457824D01*
X74017466Y-105452612D01*
X74047315Y-105227412D01*
X74047315Y-105227408D01*
X74048004Y-105222211D01*
X74039087Y-104984705D01*
X74020272Y-104895029D01*
X73991361Y-104757242D01*
X73991360Y-104757239D01*
X73990281Y-104752096D01*
X73966443Y-104691733D01*
X73904908Y-104535920D01*
X73902980Y-104531037D01*
X73898109Y-104523009D01*
X73782408Y-104332341D01*
X73779681Y-104327847D01*
X73679780Y-104212720D01*
X73627356Y-104152307D01*
X73627355Y-104152306D01*
X73623910Y-104148336D01*
X73440120Y-103997638D01*
X73399137Y-103974309D01*
X73238125Y-103882655D01*
X73238120Y-103882653D01*
X73233567Y-103880061D01*
X73010156Y-103798966D01*
X72776275Y-103756674D01*
X72751381Y-103755500D01*
X72584320Y-103755500D01*
X72581704Y-103755722D01*
X72581703Y-103755722D01*
X72570484Y-103756674D01*
X72407177Y-103770531D01*
X72177126Y-103830240D01*
X71960424Y-103927857D01*
X71763268Y-104060591D01*
X71591295Y-104224645D01*
X71449421Y-104415330D01*
X71447042Y-104420008D01*
X71447042Y-104420009D01*
X71346388Y-104617983D01*
X71341705Y-104627193D01*
X71340146Y-104632213D01*
X71340145Y-104632216D01*
X71321665Y-104691733D01*
X71271225Y-104854176D01*
X71270534Y-104859386D01*
X71270534Y-104859388D01*
X71243226Y-105065422D01*
X71239996Y-105089789D01*
X69895304Y-105089789D01*
X69814225Y-100792611D01*
X86194394Y-100792611D01*
X86212999Y-100961135D01*
X86215565Y-100968147D01*
X86215566Y-100968151D01*
X86262908Y-101097517D01*
X86271266Y-101120356D01*
X86275433Y-101126558D01*
X86275435Y-101126561D01*
X86336421Y-101217317D01*
X86365830Y-101261083D01*
X86371360Y-101266115D01*
X86485702Y-101370159D01*
X86485706Y-101370162D01*
X86491233Y-101375191D01*
X86640235Y-101456092D01*
X86735529Y-101481092D01*
X86797005Y-101497220D01*
X86797007Y-101497220D01*
X86804233Y-101499116D01*
X86887178Y-101500419D01*
X86966290Y-101501662D01*
X86966293Y-101501662D01*
X86973760Y-101501779D01*
X87105688Y-101471564D01*
X87131738Y-101465598D01*
X87131739Y-101465598D01*
X87139029Y-101463928D01*
X87214111Y-101426166D01*
X87283820Y-101391106D01*
X87283822Y-101391105D01*
X87290498Y-101387747D01*
X87299325Y-101380208D01*
X87302080Y-101378974D01*
X87302409Y-101378755D01*
X87302445Y-101378810D01*
X87363087Y-101351639D01*
X87379855Y-101350500D01*
X88263652Y-101350500D01*
X88330691Y-101370185D01*
X88347098Y-101382780D01*
X88366233Y-101400191D01*
X88372802Y-101403758D01*
X88372804Y-101403759D01*
X88389358Y-101412747D01*
X88515235Y-101481092D01*
X88610585Y-101506107D01*
X88672005Y-101522220D01*
X88672007Y-101522220D01*
X88679233Y-101524116D01*
X88762178Y-101525419D01*
X88841290Y-101526662D01*
X88841293Y-101526662D01*
X88848760Y-101526779D01*
X88977824Y-101497220D01*
X89006738Y-101490598D01*
X89006739Y-101490598D01*
X89014029Y-101488928D01*
X89089111Y-101451166D01*
X89158820Y-101416106D01*
X89158822Y-101416105D01*
X89165498Y-101412747D01*
X89171180Y-101407894D01*
X89171183Y-101407892D01*
X89288741Y-101307487D01*
X89294423Y-101302634D01*
X89380652Y-101182634D01*
X89389001Y-101171015D01*
X89389002Y-101171013D01*
X89393361Y-101164947D01*
X89395110Y-101160597D01*
X89443817Y-101112171D01*
X89512133Y-101097517D01*
X89577526Y-101122124D01*
X89619376Y-101178561D01*
X89671266Y-101320356D01*
X89675433Y-101326558D01*
X89675435Y-101326561D01*
X89727310Y-101403759D01*
X89765830Y-101461083D01*
X89771360Y-101466115D01*
X89885702Y-101570159D01*
X89885706Y-101570162D01*
X89891233Y-101575191D01*
X90040235Y-101656092D01*
X90135585Y-101681107D01*
X90197005Y-101697220D01*
X90197007Y-101697220D01*
X90204233Y-101699116D01*
X90287178Y-101700419D01*
X90366290Y-101701662D01*
X90366293Y-101701662D01*
X90373760Y-101701779D01*
X90496209Y-101673735D01*
X90531738Y-101665598D01*
X90531739Y-101665598D01*
X90539029Y-101663928D01*
X90614111Y-101626166D01*
X90683820Y-101591106D01*
X90683822Y-101591105D01*
X90690498Y-101587747D01*
X90699325Y-101580208D01*
X90702080Y-101578974D01*
X90702409Y-101578755D01*
X90702445Y-101578810D01*
X90763087Y-101551639D01*
X90779855Y-101550500D01*
X91618467Y-101550500D01*
X91688747Y-101572929D01*
X91691233Y-101575191D01*
X91697805Y-101578759D01*
X91697806Y-101578760D01*
X91714358Y-101587747D01*
X91840235Y-101656092D01*
X91935585Y-101681107D01*
X91997005Y-101697220D01*
X91997007Y-101697220D01*
X92004233Y-101699116D01*
X92087178Y-101700419D01*
X92166290Y-101701662D01*
X92166293Y-101701662D01*
X92173760Y-101701779D01*
X92296209Y-101673735D01*
X92331738Y-101665598D01*
X92331739Y-101665598D01*
X92339029Y-101663928D01*
X92414111Y-101626166D01*
X92483820Y-101591106D01*
X92483822Y-101591105D01*
X92490498Y-101587747D01*
X92496180Y-101582894D01*
X92496183Y-101582892D01*
X92613741Y-101482487D01*
X92619423Y-101477634D01*
X92718361Y-101339947D01*
X92781601Y-101182634D01*
X92784118Y-101164947D01*
X92804918Y-101018800D01*
X92804918Y-101018794D01*
X92805490Y-101014778D01*
X92805645Y-101000000D01*
X92785276Y-100831680D01*
X92739798Y-100711325D01*
X92727989Y-100680073D01*
X92727987Y-100680070D01*
X92725345Y-100673077D01*
X92720507Y-100666038D01*
X92633549Y-100539513D01*
X92633546Y-100539510D01*
X92629312Y-100533349D01*
X92562146Y-100473506D01*
X92508303Y-100425533D01*
X92508301Y-100425532D01*
X92502721Y-100420560D01*
X92488347Y-100412949D01*
X92396866Y-100364513D01*
X92352881Y-100341224D01*
X92188441Y-100299919D01*
X92102248Y-100299468D01*
X92026368Y-100299070D01*
X92026367Y-100299070D01*
X92018895Y-100299031D01*
X91997235Y-100304231D01*
X91861295Y-100336868D01*
X91861293Y-100336869D01*
X91854032Y-100338612D01*
X91847399Y-100342035D01*
X91847395Y-100342037D01*
X91780465Y-100376583D01*
X91703369Y-100416375D01*
X91697735Y-100421289D01*
X91691556Y-100425489D01*
X91690283Y-100423616D01*
X91636960Y-100448180D01*
X91618912Y-100449500D01*
X90781645Y-100449500D01*
X90710875Y-100427322D01*
X90708308Y-100425537D01*
X90702721Y-100420560D01*
X90552881Y-100341224D01*
X90388441Y-100299919D01*
X90302248Y-100299468D01*
X90226368Y-100299070D01*
X90226367Y-100299070D01*
X90218895Y-100299031D01*
X90197235Y-100304231D01*
X90061295Y-100336868D01*
X90061293Y-100336869D01*
X90054032Y-100338612D01*
X90047399Y-100342035D01*
X90047395Y-100342037D01*
X89980465Y-100376583D01*
X89903369Y-100416375D01*
X89897737Y-100421288D01*
X89809712Y-100498077D01*
X89775604Y-100527831D01*
X89678113Y-100666547D01*
X89677388Y-100666038D01*
X89632789Y-100711325D01*
X89564632Y-100726699D01*
X89498983Y-100702784D01*
X89456536Y-100646782D01*
X89402989Y-100505074D01*
X89400345Y-100498077D01*
X89350487Y-100425533D01*
X89308549Y-100364513D01*
X89308546Y-100364510D01*
X89304312Y-100358349D01*
X89177721Y-100245560D01*
X89143276Y-100227322D01*
X89034489Y-100169723D01*
X89027881Y-100166224D01*
X88863441Y-100124919D01*
X88777248Y-100124468D01*
X88701368Y-100124070D01*
X88701367Y-100124070D01*
X88693895Y-100124031D01*
X88672235Y-100129231D01*
X88536295Y-100161868D01*
X88536293Y-100161869D01*
X88529032Y-100163612D01*
X88522393Y-100167039D01*
X88522392Y-100167039D01*
X88389384Y-100235689D01*
X88332512Y-100249500D01*
X87381645Y-100249500D01*
X87310875Y-100227322D01*
X87308308Y-100225537D01*
X87302721Y-100220560D01*
X87152881Y-100141224D01*
X86988441Y-100099919D01*
X86902248Y-100099468D01*
X86826368Y-100099070D01*
X86826367Y-100099070D01*
X86818895Y-100099031D01*
X86797235Y-100104231D01*
X86661295Y-100136868D01*
X86661293Y-100136869D01*
X86654032Y-100138612D01*
X86647399Y-100142035D01*
X86647395Y-100142037D01*
X86580465Y-100176583D01*
X86503369Y-100216375D01*
X86497737Y-100221288D01*
X86405513Y-100301740D01*
X86375604Y-100327831D01*
X86278113Y-100466547D01*
X86216524Y-100624513D01*
X86215548Y-100631923D01*
X86215548Y-100631925D01*
X86206220Y-100702784D01*
X86194394Y-100792611D01*
X69814225Y-100792611D01*
X69659983Y-92617806D01*
X103844563Y-92617806D01*
X103845112Y-92623839D01*
X103845112Y-92623843D01*
X103854395Y-92725840D01*
X103862790Y-92818089D01*
X103864501Y-92823902D01*
X103864501Y-92823903D01*
X103866944Y-92832203D01*
X103919572Y-93011018D01*
X104012746Y-93189243D01*
X104106919Y-93306370D01*
X104134137Y-93340222D01*
X104138763Y-93345976D01*
X104292823Y-93475248D01*
X104469058Y-93572134D01*
X104474840Y-93573968D01*
X104474842Y-93573969D01*
X104654976Y-93631111D01*
X104654978Y-93631111D01*
X104660755Y-93632944D01*
X104715287Y-93639061D01*
X104813815Y-93650113D01*
X104813821Y-93650113D01*
X104817268Y-93650500D01*
X105475606Y-93650500D01*
X105478621Y-93650204D01*
X105478629Y-93650204D01*
X105619115Y-93636429D01*
X105619117Y-93636429D01*
X105625151Y-93635837D01*
X105817679Y-93577710D01*
X105995249Y-93483294D01*
X106151099Y-93356186D01*
X106279292Y-93201227D01*
X106286203Y-93188446D01*
X106372059Y-93029658D01*
X106372060Y-93029656D01*
X106374945Y-93024320D01*
X106434415Y-92832203D01*
X106445594Y-92725840D01*
X107745711Y-92725840D01*
X107755667Y-92915801D01*
X107806181Y-93099193D01*
X107894898Y-93267460D01*
X107899229Y-93272585D01*
X107899231Y-93272588D01*
X108013345Y-93407624D01*
X108017678Y-93412751D01*
X108023012Y-93416829D01*
X108163456Y-93524207D01*
X108163459Y-93524209D01*
X108168793Y-93528287D01*
X108174882Y-93531126D01*
X108174883Y-93531127D01*
X108335109Y-93605841D01*
X108341193Y-93608678D01*
X108347738Y-93610141D01*
X108347741Y-93610142D01*
X108439890Y-93630740D01*
X108526834Y-93650174D01*
X108532665Y-93650500D01*
X109322517Y-93650500D01*
X109464109Y-93635118D01*
X109644396Y-93574445D01*
X109807447Y-93476474D01*
X109934649Y-93356186D01*
X109940781Y-93350387D01*
X109945658Y-93345775D01*
X109995396Y-93272588D01*
X110048804Y-93194000D01*
X110048806Y-93193997D01*
X110052578Y-93188446D01*
X110055070Y-93182216D01*
X110055072Y-93182212D01*
X110120727Y-93018062D01*
X110123221Y-93011827D01*
X110124318Y-93005202D01*
X110153192Y-92830788D01*
X110153192Y-92830786D01*
X110154289Y-92824160D01*
X110144333Y-92634199D01*
X110093819Y-92450807D01*
X110005102Y-92282540D01*
X109961947Y-92231472D01*
X109886655Y-92142376D01*
X109886653Y-92142374D01*
X109882322Y-92137249D01*
X109798976Y-92073526D01*
X109736544Y-92025793D01*
X109736541Y-92025791D01*
X109731207Y-92021713D01*
X109658367Y-91987747D01*
X109564891Y-91944159D01*
X109558807Y-91941322D01*
X109552262Y-91939859D01*
X109552259Y-91939858D01*
X109440522Y-91914882D01*
X109373166Y-91899826D01*
X109367335Y-91899500D01*
X108577483Y-91899500D01*
X108435891Y-91914882D01*
X108255604Y-91975555D01*
X108092553Y-92073526D01*
X107954342Y-92204225D01*
X107950569Y-92209777D01*
X107950568Y-92209778D01*
X107897083Y-92288480D01*
X107847422Y-92361554D01*
X107844930Y-92367784D01*
X107844928Y-92367788D01*
X107824926Y-92417797D01*
X107776779Y-92538173D01*
X107775683Y-92544796D01*
X107775682Y-92544798D01*
X107761954Y-92627726D01*
X107745711Y-92725840D01*
X106445594Y-92725840D01*
X106455437Y-92632194D01*
X106447484Y-92544798D01*
X106439519Y-92457280D01*
X106437210Y-92431911D01*
X106380428Y-92238982D01*
X106377617Y-92233606D01*
X106375346Y-92227984D01*
X106376705Y-92227435D01*
X106364512Y-92166039D01*
X106390113Y-92101029D01*
X106439618Y-92065100D01*
X106439029Y-92063928D01*
X106583820Y-91991106D01*
X106583822Y-91991105D01*
X106590498Y-91987747D01*
X106596180Y-91982894D01*
X106596183Y-91982892D01*
X106713741Y-91882487D01*
X106719423Y-91877634D01*
X106818361Y-91739947D01*
X106881601Y-91582634D01*
X106905490Y-91414778D01*
X106905645Y-91400000D01*
X106885276Y-91231680D01*
X106825345Y-91073077D01*
X106816657Y-91060436D01*
X106733549Y-90939513D01*
X106733546Y-90939510D01*
X106729312Y-90933349D01*
X106602721Y-90820560D01*
X106588347Y-90812949D01*
X106459489Y-90744723D01*
X106452881Y-90741224D01*
X106288441Y-90699919D01*
X106202248Y-90699468D01*
X106126368Y-90699070D01*
X106126367Y-90699070D01*
X106118895Y-90699031D01*
X106097235Y-90704231D01*
X105961295Y-90736868D01*
X105961293Y-90736869D01*
X105954032Y-90738612D01*
X105947399Y-90742035D01*
X105947395Y-90742037D01*
X105880465Y-90776583D01*
X105803369Y-90816375D01*
X105675604Y-90927831D01*
X105578113Y-91066547D01*
X105516524Y-91224513D01*
X105494394Y-91392611D01*
X105495214Y-91400039D01*
X105495214Y-91400041D01*
X105502043Y-91461893D01*
X105489834Y-91530687D01*
X105442370Y-91581960D01*
X105378792Y-91599500D01*
X104824394Y-91599500D01*
X104821379Y-91599796D01*
X104821371Y-91599796D01*
X104680885Y-91613571D01*
X104680883Y-91613571D01*
X104674849Y-91614163D01*
X104482321Y-91672290D01*
X104304751Y-91766706D01*
X104148901Y-91893814D01*
X104020708Y-92048773D01*
X104017822Y-92054110D01*
X104017821Y-92054112D01*
X103936656Y-92204225D01*
X103925055Y-92225680D01*
X103865585Y-92417797D01*
X103844563Y-92617806D01*
X69659983Y-92617806D01*
X69559475Y-87290862D01*
X70915497Y-87290862D01*
X70945134Y-87463340D01*
X71013654Y-87624373D01*
X71017921Y-87630171D01*
X71017922Y-87630173D01*
X71075092Y-87707857D01*
X71117383Y-87765324D01*
X71122874Y-87769989D01*
X71122875Y-87769990D01*
X71245261Y-87873965D01*
X71245264Y-87873967D01*
X71250755Y-87878632D01*
X71257172Y-87881909D01*
X71257174Y-87881910D01*
X71323616Y-87915837D01*
X71406616Y-87958219D01*
X71413612Y-87959931D01*
X71413615Y-87959932D01*
X71484763Y-87977341D01*
X71576606Y-87999815D01*
X71582114Y-88000157D01*
X71582116Y-88000157D01*
X71585744Y-88000382D01*
X71585748Y-88000382D01*
X71587648Y-88000500D01*
X71713822Y-88000500D01*
X71843828Y-87985343D01*
X71850595Y-87982887D01*
X71850598Y-87982886D01*
X72001557Y-87928090D01*
X72001558Y-87928089D01*
X72008331Y-87925631D01*
X72154685Y-87829677D01*
X72159637Y-87824449D01*
X72159640Y-87824447D01*
X72270087Y-87707857D01*
X72270089Y-87707855D01*
X72275040Y-87702628D01*
X72278656Y-87696403D01*
X72278658Y-87696400D01*
X72359322Y-87557525D01*
X72362939Y-87551298D01*
X72413667Y-87383807D01*
X72424503Y-87209138D01*
X72394866Y-87036660D01*
X72326346Y-86875627D01*
X72273340Y-86803600D01*
X72226888Y-86740479D01*
X72226886Y-86740477D01*
X72222617Y-86734676D01*
X72213065Y-86726561D01*
X72094739Y-86626035D01*
X72094736Y-86626033D01*
X72089245Y-86621368D01*
X72082828Y-86618091D01*
X72082826Y-86618090D01*
X71971286Y-86561135D01*
X71933384Y-86541781D01*
X71926388Y-86540069D01*
X71926385Y-86540068D01*
X71855237Y-86522659D01*
X71763394Y-86500185D01*
X71757886Y-86499843D01*
X71757884Y-86499843D01*
X71754256Y-86499618D01*
X71754252Y-86499618D01*
X71752352Y-86499500D01*
X71626178Y-86499500D01*
X71496172Y-86514657D01*
X71489405Y-86517113D01*
X71489402Y-86517114D01*
X71348799Y-86568151D01*
X71331669Y-86574369D01*
X71185315Y-86670323D01*
X71180363Y-86675551D01*
X71180360Y-86675553D01*
X71119359Y-86739947D01*
X71064960Y-86797372D01*
X71061344Y-86803597D01*
X71061342Y-86803600D01*
X70992743Y-86921703D01*
X70977061Y-86948702D01*
X70926333Y-87116193D01*
X70915497Y-87290862D01*
X69559475Y-87290862D01*
X69519417Y-85167806D01*
X103844563Y-85167806D01*
X103845112Y-85173839D01*
X103845112Y-85173843D01*
X103853119Y-85261827D01*
X103862790Y-85368089D01*
X103919572Y-85561018D01*
X104012746Y-85739243D01*
X104138763Y-85895976D01*
X104292823Y-86025248D01*
X104469058Y-86122134D01*
X104474840Y-86123968D01*
X104474842Y-86123969D01*
X104654976Y-86181111D01*
X104654978Y-86181111D01*
X104660755Y-86182944D01*
X104715287Y-86189061D01*
X104813815Y-86200113D01*
X104813821Y-86200113D01*
X104817268Y-86200500D01*
X105378291Y-86200500D01*
X105445330Y-86220185D01*
X105491085Y-86272989D01*
X105501230Y-86340685D01*
X105494394Y-86392611D01*
X105495214Y-86400039D01*
X105495214Y-86400041D01*
X105506232Y-86499843D01*
X105512999Y-86561135D01*
X105515565Y-86568147D01*
X105515566Y-86568151D01*
X105535041Y-86621368D01*
X105571266Y-86720356D01*
X105575433Y-86726558D01*
X105575435Y-86726561D01*
X105623018Y-86797372D01*
X105665830Y-86861083D01*
X105671360Y-86866115D01*
X105785702Y-86970159D01*
X105785706Y-86970162D01*
X105791233Y-86975191D01*
X105940235Y-87056092D01*
X106035585Y-87081107D01*
X106097005Y-87097220D01*
X106097007Y-87097220D01*
X106104233Y-87099116D01*
X106187178Y-87100419D01*
X106266290Y-87101662D01*
X106266293Y-87101662D01*
X106273760Y-87101779D01*
X106396209Y-87073735D01*
X106431738Y-87065598D01*
X106431739Y-87065598D01*
X106439029Y-87063928D01*
X106514111Y-87026166D01*
X106583820Y-86991106D01*
X106583822Y-86991105D01*
X106590498Y-86987747D01*
X106596180Y-86982894D01*
X106596183Y-86982892D01*
X106713741Y-86882487D01*
X106719423Y-86877634D01*
X106818361Y-86739947D01*
X106881601Y-86582634D01*
X106882654Y-86575237D01*
X106904918Y-86418800D01*
X106904918Y-86418794D01*
X106905490Y-86414778D01*
X106905645Y-86400000D01*
X106885276Y-86231680D01*
X106866168Y-86181111D01*
X106827989Y-86080073D01*
X106827987Y-86080070D01*
X106825345Y-86073077D01*
X106792473Y-86025248D01*
X106733549Y-85939513D01*
X106733546Y-85939510D01*
X106729312Y-85933349D01*
X106645504Y-85858678D01*
X106608303Y-85825533D01*
X106608301Y-85825532D01*
X106602721Y-85820560D01*
X106515176Y-85774207D01*
X106459484Y-85744720D01*
X106459483Y-85744720D01*
X106452881Y-85741224D01*
X106445636Y-85739404D01*
X106443919Y-85738745D01*
X106388387Y-85696343D01*
X106364595Y-85630648D01*
X106373788Y-85576459D01*
X106374945Y-85574320D01*
X106434415Y-85382203D01*
X106455437Y-85182194D01*
X106454535Y-85172274D01*
X106437759Y-84987946D01*
X106437210Y-84981911D01*
X106435423Y-84975840D01*
X107745711Y-84975840D01*
X107755667Y-85165801D01*
X107806181Y-85349193D01*
X107894898Y-85517460D01*
X107899229Y-85522585D01*
X107899231Y-85522588D01*
X107990549Y-85630648D01*
X108017678Y-85662751D01*
X108023012Y-85666829D01*
X108163456Y-85774207D01*
X108163459Y-85774209D01*
X108168793Y-85778287D01*
X108174882Y-85781126D01*
X108174883Y-85781127D01*
X108335109Y-85855841D01*
X108341193Y-85858678D01*
X108347738Y-85860141D01*
X108347741Y-85860142D01*
X108439890Y-85880740D01*
X108526834Y-85900174D01*
X108532665Y-85900500D01*
X109322517Y-85900500D01*
X109464109Y-85885118D01*
X109644396Y-85824445D01*
X109807447Y-85726474D01*
X109945658Y-85595775D01*
X109960239Y-85574320D01*
X110048804Y-85444000D01*
X110048806Y-85443997D01*
X110052578Y-85438446D01*
X110055070Y-85432216D01*
X110055072Y-85432212D01*
X110120727Y-85268062D01*
X110123221Y-85261827D01*
X110137787Y-85173843D01*
X110153192Y-85080788D01*
X110153192Y-85080786D01*
X110154289Y-85074160D01*
X110144333Y-84884199D01*
X110093819Y-84700807D01*
X110005102Y-84532540D01*
X109935457Y-84450125D01*
X109886655Y-84392376D01*
X109886653Y-84392374D01*
X109882322Y-84387249D01*
X109796756Y-84321829D01*
X109736544Y-84275793D01*
X109736541Y-84275791D01*
X109731207Y-84271713D01*
X109639643Y-84229016D01*
X109564891Y-84194159D01*
X109558807Y-84191322D01*
X109552262Y-84189859D01*
X109552259Y-84189858D01*
X109440522Y-84164882D01*
X109373166Y-84149826D01*
X109367335Y-84149500D01*
X108577483Y-84149500D01*
X108435891Y-84164882D01*
X108255604Y-84225555D01*
X108092553Y-84323526D01*
X108087676Y-84328138D01*
X107960406Y-84448491D01*
X107954342Y-84454225D01*
X107950569Y-84459777D01*
X107950568Y-84459778D01*
X107852480Y-84604112D01*
X107847422Y-84611554D01*
X107844930Y-84617784D01*
X107844928Y-84617788D01*
X107814099Y-84694867D01*
X107776779Y-84788173D01*
X107775683Y-84794796D01*
X107775682Y-84794798D01*
X107747043Y-84967797D01*
X107745711Y-84975840D01*
X106435423Y-84975840D01*
X106433473Y-84969212D01*
X106382141Y-84794802D01*
X106382141Y-84794801D01*
X106380428Y-84788982D01*
X106287254Y-84610757D01*
X106168727Y-84463340D01*
X106165037Y-84458750D01*
X106165036Y-84458749D01*
X106161237Y-84454024D01*
X106007177Y-84324752D01*
X105830942Y-84227866D01*
X105825160Y-84226032D01*
X105825158Y-84226031D01*
X105645024Y-84168889D01*
X105645022Y-84168889D01*
X105639245Y-84167056D01*
X105584713Y-84160939D01*
X105486185Y-84149887D01*
X105486179Y-84149887D01*
X105482732Y-84149500D01*
X104824394Y-84149500D01*
X104821379Y-84149796D01*
X104821371Y-84149796D01*
X104680885Y-84163571D01*
X104680883Y-84163571D01*
X104674849Y-84164163D01*
X104482321Y-84222290D01*
X104476970Y-84225135D01*
X104476968Y-84225136D01*
X104310109Y-84313857D01*
X104304751Y-84316706D01*
X104148901Y-84443814D01*
X104020708Y-84598773D01*
X104017822Y-84604110D01*
X104017821Y-84604112D01*
X103928132Y-84769990D01*
X103925055Y-84775680D01*
X103865585Y-84967797D01*
X103844563Y-85167806D01*
X69519417Y-85167806D01*
X69502871Y-84290862D01*
X70915497Y-84290862D01*
X70945134Y-84463340D01*
X71013654Y-84624373D01*
X71017921Y-84630171D01*
X71017922Y-84630173D01*
X71075092Y-84707857D01*
X71117383Y-84765324D01*
X71122874Y-84769989D01*
X71122875Y-84769990D01*
X71245261Y-84873965D01*
X71245264Y-84873967D01*
X71250755Y-84878632D01*
X71257172Y-84881909D01*
X71257174Y-84881910D01*
X71261657Y-84884199D01*
X71406616Y-84958219D01*
X71413612Y-84959931D01*
X71413615Y-84959932D01*
X71479678Y-84976097D01*
X71576606Y-84999815D01*
X71582114Y-85000157D01*
X71582116Y-85000157D01*
X71585744Y-85000382D01*
X71585748Y-85000382D01*
X71587648Y-85000500D01*
X71713822Y-85000500D01*
X71843828Y-84985343D01*
X71850595Y-84982887D01*
X71850598Y-84982886D01*
X72001557Y-84928090D01*
X72001558Y-84928089D01*
X72008331Y-84925631D01*
X72154685Y-84829677D01*
X72159637Y-84824449D01*
X72159640Y-84824447D01*
X72270087Y-84707857D01*
X72270089Y-84707855D01*
X72275040Y-84702628D01*
X72278656Y-84696403D01*
X72278658Y-84696400D01*
X72359322Y-84557525D01*
X72362939Y-84551298D01*
X72413667Y-84383807D01*
X72424503Y-84209138D01*
X72394866Y-84036660D01*
X72326346Y-83875627D01*
X72273340Y-83803600D01*
X72226888Y-83740479D01*
X72226886Y-83740477D01*
X72222617Y-83734676D01*
X72142216Y-83666370D01*
X72094739Y-83626035D01*
X72094736Y-83626033D01*
X72089245Y-83621368D01*
X72082828Y-83618091D01*
X72082826Y-83618090D01*
X71992388Y-83571910D01*
X71933384Y-83541781D01*
X71926388Y-83540069D01*
X71926385Y-83540068D01*
X71855237Y-83522659D01*
X71763394Y-83500185D01*
X71757886Y-83499843D01*
X71757884Y-83499843D01*
X71754256Y-83499618D01*
X71754252Y-83499618D01*
X71752352Y-83499500D01*
X71626178Y-83499500D01*
X71496172Y-83514657D01*
X71489405Y-83517113D01*
X71489402Y-83517114D01*
X71338443Y-83571910D01*
X71331669Y-83574369D01*
X71185315Y-83670323D01*
X71180363Y-83675551D01*
X71180360Y-83675553D01*
X71118855Y-83740479D01*
X71064960Y-83797372D01*
X71061344Y-83803597D01*
X71061342Y-83803600D01*
X71022875Y-83869827D01*
X70977061Y-83948702D01*
X70926333Y-84116193D01*
X70915497Y-84290862D01*
X69502871Y-84290862D01*
X69446300Y-81292611D01*
X86694394Y-81292611D01*
X86695214Y-81300039D01*
X86695214Y-81300041D01*
X86696841Y-81314778D01*
X86712999Y-81461135D01*
X86715565Y-81468147D01*
X86715566Y-81468151D01*
X86768697Y-81613336D01*
X86771266Y-81620356D01*
X86775433Y-81626558D01*
X86775435Y-81626561D01*
X86801537Y-81665405D01*
X86865830Y-81761083D01*
X86871360Y-81766115D01*
X86985702Y-81870159D01*
X86985706Y-81870162D01*
X86991233Y-81875191D01*
X87140235Y-81956092D01*
X87235585Y-81981107D01*
X87297005Y-81997220D01*
X87297007Y-81997220D01*
X87304233Y-81999116D01*
X87387178Y-82000419D01*
X87466290Y-82001662D01*
X87466293Y-82001662D01*
X87473760Y-82001779D01*
X87596209Y-81973735D01*
X87631738Y-81965598D01*
X87631739Y-81965598D01*
X87639029Y-81963928D01*
X87714111Y-81926166D01*
X87783820Y-81891106D01*
X87783822Y-81891105D01*
X87790498Y-81887747D01*
X87799325Y-81880208D01*
X87802080Y-81878974D01*
X87802409Y-81878755D01*
X87802445Y-81878810D01*
X87863087Y-81851639D01*
X87879855Y-81850500D01*
X90118467Y-81850500D01*
X90188747Y-81872929D01*
X90191233Y-81875191D01*
X90197805Y-81878759D01*
X90197806Y-81878760D01*
X90214358Y-81887747D01*
X90340235Y-81956092D01*
X90435585Y-81981107D01*
X90497005Y-81997220D01*
X90497007Y-81997220D01*
X90504233Y-81999116D01*
X90587178Y-82000419D01*
X90666290Y-82001662D01*
X90666293Y-82001662D01*
X90673760Y-82001779D01*
X90796209Y-81973735D01*
X90831738Y-81965598D01*
X90831739Y-81965598D01*
X90839029Y-81963928D01*
X90914111Y-81926166D01*
X90983820Y-81891106D01*
X90983822Y-81891105D01*
X90990498Y-81887747D01*
X90996180Y-81882894D01*
X90996183Y-81882892D01*
X91113741Y-81782487D01*
X91119423Y-81777634D01*
X91218361Y-81639947D01*
X91281601Y-81482634D01*
X91285718Y-81453707D01*
X91304918Y-81318800D01*
X91304918Y-81318794D01*
X91305490Y-81314778D01*
X91305645Y-81300000D01*
X91304751Y-81292611D01*
X91594394Y-81292611D01*
X91595214Y-81300039D01*
X91595214Y-81300041D01*
X91596841Y-81314778D01*
X91612999Y-81461135D01*
X91615565Y-81468147D01*
X91615566Y-81468151D01*
X91668697Y-81613336D01*
X91671266Y-81620356D01*
X91675433Y-81626558D01*
X91675435Y-81626561D01*
X91701537Y-81665405D01*
X91765830Y-81761083D01*
X91771360Y-81766115D01*
X91885702Y-81870159D01*
X91885706Y-81870162D01*
X91891233Y-81875191D01*
X92040235Y-81956092D01*
X92135585Y-81981107D01*
X92197005Y-81997220D01*
X92197007Y-81997220D01*
X92204233Y-81999116D01*
X92287178Y-82000419D01*
X92366290Y-82001662D01*
X92366293Y-82001662D01*
X92373760Y-82001779D01*
X92496209Y-81973735D01*
X92531738Y-81965598D01*
X92531739Y-81965598D01*
X92539029Y-81963928D01*
X92614111Y-81926166D01*
X92683820Y-81891106D01*
X92683822Y-81891105D01*
X92690498Y-81887747D01*
X92699325Y-81880208D01*
X92702080Y-81878974D01*
X92702409Y-81878755D01*
X92702445Y-81878810D01*
X92763087Y-81851639D01*
X92779855Y-81850500D01*
X94618467Y-81850500D01*
X94688747Y-81872929D01*
X94691233Y-81875191D01*
X94697805Y-81878759D01*
X94697806Y-81878760D01*
X94714358Y-81887747D01*
X94840235Y-81956092D01*
X94935585Y-81981107D01*
X94997005Y-81997220D01*
X94997007Y-81997220D01*
X95004233Y-81999116D01*
X95087178Y-82000419D01*
X95166290Y-82001662D01*
X95166293Y-82001662D01*
X95173760Y-82001779D01*
X95296209Y-81973735D01*
X95331738Y-81965598D01*
X95331739Y-81965598D01*
X95339029Y-81963928D01*
X95414111Y-81926166D01*
X95483820Y-81891106D01*
X95483822Y-81891105D01*
X95490498Y-81887747D01*
X95496180Y-81882894D01*
X95496183Y-81882892D01*
X95613741Y-81782487D01*
X95619423Y-81777634D01*
X95700070Y-81665402D01*
X95755172Y-81622450D01*
X95824753Y-81616106D01*
X95886718Y-81648388D01*
X95903687Y-81668604D01*
X95965830Y-81761083D01*
X95971360Y-81766115D01*
X96085702Y-81870159D01*
X96085706Y-81870162D01*
X96091233Y-81875191D01*
X96240235Y-81956092D01*
X96335585Y-81981107D01*
X96397005Y-81997220D01*
X96397007Y-81997220D01*
X96404233Y-81999116D01*
X96487178Y-82000419D01*
X96566290Y-82001662D01*
X96566293Y-82001662D01*
X96573760Y-82001779D01*
X96696209Y-81973735D01*
X96731738Y-81965598D01*
X96731739Y-81965598D01*
X96739029Y-81963928D01*
X96814111Y-81926166D01*
X96883820Y-81891106D01*
X96883822Y-81891105D01*
X96890498Y-81887747D01*
X96899325Y-81880208D01*
X96902080Y-81878974D01*
X96902409Y-81878755D01*
X96902445Y-81878810D01*
X96963087Y-81851639D01*
X96979855Y-81850500D01*
X98918467Y-81850500D01*
X98988747Y-81872929D01*
X98991233Y-81875191D01*
X98997805Y-81878759D01*
X98997806Y-81878760D01*
X99014358Y-81887747D01*
X99140235Y-81956092D01*
X99235585Y-81981107D01*
X99297005Y-81997220D01*
X99297007Y-81997220D01*
X99304233Y-81999116D01*
X99387178Y-82000419D01*
X99466290Y-82001662D01*
X99466293Y-82001662D01*
X99473760Y-82001779D01*
X99596209Y-81973735D01*
X99631738Y-81965598D01*
X99631739Y-81965598D01*
X99639029Y-81963928D01*
X99714111Y-81926166D01*
X99783820Y-81891106D01*
X99783822Y-81891105D01*
X99790498Y-81887747D01*
X99796180Y-81882894D01*
X99796183Y-81882892D01*
X99913741Y-81782487D01*
X99919423Y-81777634D01*
X100018361Y-81639947D01*
X100081601Y-81482634D01*
X100085718Y-81453707D01*
X100104918Y-81318800D01*
X100104918Y-81318794D01*
X100105490Y-81314778D01*
X100105645Y-81300000D01*
X100103854Y-81285199D01*
X100086175Y-81139105D01*
X100086174Y-81139101D01*
X100085276Y-81131680D01*
X100076254Y-81107805D01*
X100027989Y-80980073D01*
X100027987Y-80980070D01*
X100025345Y-80973077D01*
X99997553Y-80932639D01*
X99933549Y-80839513D01*
X99933546Y-80839510D01*
X99929312Y-80833349D01*
X99887340Y-80795953D01*
X99808303Y-80725533D01*
X99808301Y-80725532D01*
X99802721Y-80720560D01*
X99788347Y-80712949D01*
X99659489Y-80644723D01*
X99652881Y-80641224D01*
X99488441Y-80599919D01*
X99402248Y-80599468D01*
X99326368Y-80599070D01*
X99326367Y-80599070D01*
X99318895Y-80599031D01*
X99297235Y-80604231D01*
X99161295Y-80636868D01*
X99161293Y-80636869D01*
X99154032Y-80638612D01*
X99147399Y-80642035D01*
X99147395Y-80642037D01*
X99080465Y-80676583D01*
X99003369Y-80716375D01*
X98997735Y-80721289D01*
X98991556Y-80725489D01*
X98990283Y-80723616D01*
X98936960Y-80748180D01*
X98918912Y-80749500D01*
X96981645Y-80749500D01*
X96910875Y-80727322D01*
X96908308Y-80725537D01*
X96902721Y-80720560D01*
X96752881Y-80641224D01*
X96588441Y-80599919D01*
X96502248Y-80599468D01*
X96426368Y-80599070D01*
X96426367Y-80599070D01*
X96418895Y-80599031D01*
X96397235Y-80604231D01*
X96261295Y-80636868D01*
X96261293Y-80636869D01*
X96254032Y-80638612D01*
X96247399Y-80642035D01*
X96247395Y-80642037D01*
X96180465Y-80676583D01*
X96103369Y-80716375D01*
X95975604Y-80827831D01*
X95971306Y-80833947D01*
X95971302Y-80833951D01*
X95901195Y-80933704D01*
X95846542Y-80977234D01*
X95777031Y-80984306D01*
X95714731Y-80952675D01*
X95697553Y-80932639D01*
X95633549Y-80839513D01*
X95633546Y-80839510D01*
X95629312Y-80833349D01*
X95587340Y-80795953D01*
X95508303Y-80725533D01*
X95508301Y-80725532D01*
X95502721Y-80720560D01*
X95488347Y-80712949D01*
X95359489Y-80644723D01*
X95352881Y-80641224D01*
X95188441Y-80599919D01*
X95102248Y-80599468D01*
X95026368Y-80599070D01*
X95026367Y-80599070D01*
X95018895Y-80599031D01*
X94997235Y-80604231D01*
X94861295Y-80636868D01*
X94861293Y-80636869D01*
X94854032Y-80638612D01*
X94847399Y-80642035D01*
X94847395Y-80642037D01*
X94780465Y-80676583D01*
X94703369Y-80716375D01*
X94697735Y-80721289D01*
X94691556Y-80725489D01*
X94690283Y-80723616D01*
X94636960Y-80748180D01*
X94618912Y-80749500D01*
X92781645Y-80749500D01*
X92710875Y-80727322D01*
X92708308Y-80725537D01*
X92702721Y-80720560D01*
X92552881Y-80641224D01*
X92388441Y-80599919D01*
X92302248Y-80599468D01*
X92226368Y-80599070D01*
X92226367Y-80599070D01*
X92218895Y-80599031D01*
X92197235Y-80604231D01*
X92061295Y-80636868D01*
X92061293Y-80636869D01*
X92054032Y-80638612D01*
X92047399Y-80642035D01*
X92047395Y-80642037D01*
X91980465Y-80676583D01*
X91903369Y-80716375D01*
X91775604Y-80827831D01*
X91678113Y-80966547D01*
X91616524Y-81124513D01*
X91594394Y-81292611D01*
X91304751Y-81292611D01*
X91303854Y-81285199D01*
X91286175Y-81139105D01*
X91286174Y-81139101D01*
X91285276Y-81131680D01*
X91276254Y-81107805D01*
X91227989Y-80980073D01*
X91227987Y-80980070D01*
X91225345Y-80973077D01*
X91197553Y-80932639D01*
X91133549Y-80839513D01*
X91133546Y-80839510D01*
X91129312Y-80833349D01*
X91087340Y-80795953D01*
X91008303Y-80725533D01*
X91008301Y-80725532D01*
X91002721Y-80720560D01*
X90988347Y-80712949D01*
X90859489Y-80644723D01*
X90852881Y-80641224D01*
X90688441Y-80599919D01*
X90602248Y-80599468D01*
X90526368Y-80599070D01*
X90526367Y-80599070D01*
X90518895Y-80599031D01*
X90497235Y-80604231D01*
X90361295Y-80636868D01*
X90361293Y-80636869D01*
X90354032Y-80638612D01*
X90347399Y-80642035D01*
X90347395Y-80642037D01*
X90280465Y-80676583D01*
X90203369Y-80716375D01*
X90197735Y-80721289D01*
X90191556Y-80725489D01*
X90190283Y-80723616D01*
X90136960Y-80748180D01*
X90118912Y-80749500D01*
X87881645Y-80749500D01*
X87810875Y-80727322D01*
X87808308Y-80725537D01*
X87802721Y-80720560D01*
X87652881Y-80641224D01*
X87488441Y-80599919D01*
X87402248Y-80599468D01*
X87326368Y-80599070D01*
X87326367Y-80599070D01*
X87318895Y-80599031D01*
X87297235Y-80604231D01*
X87161295Y-80636868D01*
X87161293Y-80636869D01*
X87154032Y-80638612D01*
X87147399Y-80642035D01*
X87147395Y-80642037D01*
X87080465Y-80676583D01*
X87003369Y-80716375D01*
X86875604Y-80827831D01*
X86778113Y-80966547D01*
X86716524Y-81124513D01*
X86694394Y-81292611D01*
X69446300Y-81292611D01*
X69389223Y-78267504D01*
X69391085Y-78243633D01*
X69391252Y-78242686D01*
X69391252Y-78242683D01*
X69393136Y-78232000D01*
X69391252Y-78221316D01*
X69391252Y-78213159D01*
X69390302Y-78197622D01*
X69391970Y-78165789D01*
X71239996Y-78165789D01*
X71243815Y-78267504D01*
X71245818Y-78320846D01*
X71248913Y-78403295D01*
X71249990Y-78408430D01*
X71249991Y-78408435D01*
X71285126Y-78575886D01*
X71297719Y-78635904D01*
X71299648Y-78640788D01*
X71299649Y-78640792D01*
X71333348Y-78726123D01*
X71385020Y-78856963D01*
X71387741Y-78861447D01*
X71387743Y-78861451D01*
X71455233Y-78972670D01*
X71508319Y-79060153D01*
X71664090Y-79239664D01*
X71847880Y-79390362D01*
X71852441Y-79392958D01*
X71852442Y-79392959D01*
X72049875Y-79505345D01*
X72049880Y-79505347D01*
X72054433Y-79507939D01*
X72277844Y-79589034D01*
X72511725Y-79631326D01*
X72536619Y-79632500D01*
X72703680Y-79632500D01*
X72706296Y-79632278D01*
X72706297Y-79632278D01*
X72875590Y-79617913D01*
X72880823Y-79617469D01*
X73110874Y-79557760D01*
X73327576Y-79460143D01*
X73524732Y-79327409D01*
X73696705Y-79163355D01*
X73838579Y-78972670D01*
X73840958Y-78967991D01*
X73943913Y-78765493D01*
X73943915Y-78765488D01*
X73946295Y-78760807D01*
X73974137Y-78671143D01*
X74015215Y-78538848D01*
X74016775Y-78533824D01*
X74018385Y-78521675D01*
X74047315Y-78303412D01*
X74047315Y-78303408D01*
X74048004Y-78298211D01*
X74039087Y-78060705D01*
X74011700Y-77930176D01*
X73991361Y-77833242D01*
X73991360Y-77833239D01*
X73990281Y-77828096D01*
X73971362Y-77780189D01*
X73939103Y-77698507D01*
X73924815Y-77662326D01*
X81352667Y-77662326D01*
X81405168Y-77858264D01*
X81408857Y-77868397D01*
X81504110Y-78072667D01*
X81509508Y-78082017D01*
X81638784Y-78266643D01*
X81645719Y-78274907D01*
X81805091Y-78434279D01*
X81813357Y-78441215D01*
X81997992Y-78570498D01*
X82007324Y-78575886D01*
X82211603Y-78671143D01*
X82221736Y-78674832D01*
X82412779Y-78726022D01*
X82426653Y-78725691D01*
X82430000Y-78717875D01*
X82430000Y-78712806D01*
X82930000Y-78712806D01*
X82933910Y-78726123D01*
X82942326Y-78727333D01*
X83138264Y-78674832D01*
X83148397Y-78671143D01*
X83352676Y-78575886D01*
X83362008Y-78570498D01*
X83546643Y-78441215D01*
X83554909Y-78434279D01*
X83714281Y-78274907D01*
X83721216Y-78266643D01*
X83850492Y-78082017D01*
X83855890Y-78072667D01*
X83947656Y-77875876D01*
X83993829Y-77823437D01*
X84061022Y-77804285D01*
X84127903Y-77824501D01*
X84172648Y-77876368D01*
X84199857Y-77935388D01*
X84219369Y-77977714D01*
X84341405Y-78150391D01*
X84345476Y-78154357D01*
X84345477Y-78154358D01*
X84404300Y-78211661D01*
X84492865Y-78297937D01*
X84497588Y-78301093D01*
X84497592Y-78301096D01*
X84568663Y-78348584D01*
X84668677Y-78415411D01*
X84862953Y-78498878D01*
X84898277Y-78506871D01*
X85063638Y-78544289D01*
X85063642Y-78544290D01*
X85069186Y-78545544D01*
X85195315Y-78550500D01*
X85274789Y-78553623D01*
X85274791Y-78553623D01*
X85280470Y-78553846D01*
X85286090Y-78553031D01*
X85286092Y-78553031D01*
X85484103Y-78524320D01*
X85484104Y-78524320D01*
X85489730Y-78523504D01*
X85508588Y-78517103D01*
X85684565Y-78457367D01*
X85684568Y-78457366D01*
X85689955Y-78455537D01*
X85694916Y-78452759D01*
X85694922Y-78452756D01*
X85801530Y-78393052D01*
X85874442Y-78352219D01*
X85912165Y-78320846D01*
X86032645Y-78220644D01*
X86037012Y-78217012D01*
X86075254Y-78171031D01*
X86168584Y-78058813D01*
X86168585Y-78058811D01*
X86172219Y-78054442D01*
X86238893Y-77935388D01*
X86272756Y-77874922D01*
X86272759Y-77874916D01*
X86275537Y-77869955D01*
X86288000Y-77833242D01*
X86341675Y-77675118D01*
X86343504Y-77669730D01*
X86345954Y-77652831D01*
X86367820Y-77502033D01*
X86396921Y-77438512D01*
X86450225Y-77404346D01*
X86530974Y-77404346D01*
X86584347Y-77438736D01*
X86613296Y-77502327D01*
X86614271Y-77511707D01*
X86618796Y-77580749D01*
X86670845Y-77785690D01*
X86673219Y-77790841D01*
X86673221Y-77790845D01*
X86756989Y-77972552D01*
X86759369Y-77977714D01*
X86881405Y-78150391D01*
X86885476Y-78154357D01*
X86885477Y-78154358D01*
X86944300Y-78211661D01*
X87032865Y-78297937D01*
X87037588Y-78301093D01*
X87037592Y-78301096D01*
X87108663Y-78348584D01*
X87208677Y-78415411D01*
X87402953Y-78498878D01*
X87438277Y-78506871D01*
X87603638Y-78544289D01*
X87603642Y-78544290D01*
X87609186Y-78545544D01*
X87735315Y-78550500D01*
X87814789Y-78553623D01*
X87814791Y-78553623D01*
X87820470Y-78553846D01*
X87826090Y-78553031D01*
X87826092Y-78553031D01*
X88024103Y-78524320D01*
X88024104Y-78524320D01*
X88029730Y-78523504D01*
X88048588Y-78517103D01*
X88224565Y-78457367D01*
X88224568Y-78457366D01*
X88229955Y-78455537D01*
X88234916Y-78452759D01*
X88234922Y-78452756D01*
X88341530Y-78393052D01*
X88414442Y-78352219D01*
X88452165Y-78320846D01*
X88572645Y-78220644D01*
X88577012Y-78217012D01*
X88615254Y-78171031D01*
X88708584Y-78058813D01*
X88708585Y-78058811D01*
X88712219Y-78054442D01*
X88778893Y-77935388D01*
X88812756Y-77874922D01*
X88812759Y-77874916D01*
X88815537Y-77869955D01*
X88828000Y-77833242D01*
X88881675Y-77675118D01*
X88883504Y-77669730D01*
X88896406Y-77580749D01*
X88902783Y-77536769D01*
X88931884Y-77473248D01*
X88990707Y-77435543D01*
X89060577Y-77435627D01*
X89119310Y-77473471D01*
X89148259Y-77537061D01*
X89149500Y-77554562D01*
X89149500Y-78294646D01*
X89152618Y-78320846D01*
X89198061Y-78423153D01*
X89277287Y-78502241D01*
X89287758Y-78506870D01*
X89287759Y-78506871D01*
X89371147Y-78543737D01*
X89371149Y-78543738D01*
X89379673Y-78547506D01*
X89405354Y-78550500D01*
X91194646Y-78550500D01*
X91198300Y-78550065D01*
X91198302Y-78550065D01*
X91203266Y-78549474D01*
X91220846Y-78547382D01*
X91323153Y-78501939D01*
X91402241Y-78422713D01*
X91406871Y-78412241D01*
X91443737Y-78328853D01*
X91443738Y-78328851D01*
X91447506Y-78320327D01*
X91450500Y-78294646D01*
X91450500Y-77662326D01*
X93132667Y-77662326D01*
X93185168Y-77858264D01*
X93188857Y-77868397D01*
X93284110Y-78072667D01*
X93289508Y-78082017D01*
X93418784Y-78266643D01*
X93425719Y-78274907D01*
X93585091Y-78434279D01*
X93593357Y-78441215D01*
X93777992Y-78570498D01*
X93787324Y-78575886D01*
X93991603Y-78671143D01*
X94001736Y-78674832D01*
X94192779Y-78726022D01*
X94206653Y-78725691D01*
X94210000Y-78717875D01*
X94210000Y-78712806D01*
X94710000Y-78712806D01*
X94713910Y-78726123D01*
X94722326Y-78727333D01*
X94918264Y-78674832D01*
X94928397Y-78671143D01*
X95132676Y-78575886D01*
X95142008Y-78570498D01*
X95326643Y-78441215D01*
X95334909Y-78434279D01*
X95494281Y-78274907D01*
X95501216Y-78266643D01*
X95630492Y-78082017D01*
X95635890Y-78072667D01*
X95727656Y-77875876D01*
X95773829Y-77823437D01*
X95841022Y-77804285D01*
X95907903Y-77824501D01*
X95952648Y-77876368D01*
X95979857Y-77935388D01*
X95999369Y-77977714D01*
X96121405Y-78150391D01*
X96125476Y-78154357D01*
X96125477Y-78154358D01*
X96184300Y-78211661D01*
X96272865Y-78297937D01*
X96277588Y-78301093D01*
X96277592Y-78301096D01*
X96348663Y-78348584D01*
X96448677Y-78415411D01*
X96642953Y-78498878D01*
X96678277Y-78506871D01*
X96843638Y-78544289D01*
X96843642Y-78544290D01*
X96849186Y-78545544D01*
X96975315Y-78550500D01*
X97054789Y-78553623D01*
X97054791Y-78553623D01*
X97060470Y-78553846D01*
X97066090Y-78553031D01*
X97066092Y-78553031D01*
X97264103Y-78524320D01*
X97264104Y-78524320D01*
X97269730Y-78523504D01*
X97288588Y-78517103D01*
X97464565Y-78457367D01*
X97464568Y-78457366D01*
X97469955Y-78455537D01*
X97474916Y-78452759D01*
X97474922Y-78452756D01*
X97581530Y-78393052D01*
X97654442Y-78352219D01*
X97692165Y-78320846D01*
X97812645Y-78220644D01*
X97817012Y-78217012D01*
X97855254Y-78171031D01*
X97948584Y-78058813D01*
X97948585Y-78058811D01*
X97952219Y-78054442D01*
X98018893Y-77935388D01*
X98052756Y-77874922D01*
X98052759Y-77874916D01*
X98055537Y-77869955D01*
X98068000Y-77833242D01*
X98121675Y-77675118D01*
X98123504Y-77669730D01*
X98125954Y-77652831D01*
X98147820Y-77502033D01*
X98176921Y-77438512D01*
X98230225Y-77404346D01*
X98310974Y-77404346D01*
X98364347Y-77438736D01*
X98393296Y-77502327D01*
X98394271Y-77511707D01*
X98398796Y-77580749D01*
X98450845Y-77785690D01*
X98453219Y-77790841D01*
X98453221Y-77790845D01*
X98536989Y-77972552D01*
X98539369Y-77977714D01*
X98661405Y-78150391D01*
X98665476Y-78154357D01*
X98665477Y-78154358D01*
X98724300Y-78211661D01*
X98812865Y-78297937D01*
X98817588Y-78301093D01*
X98817592Y-78301096D01*
X98888663Y-78348584D01*
X98988677Y-78415411D01*
X99182953Y-78498878D01*
X99218277Y-78506871D01*
X99383638Y-78544289D01*
X99383642Y-78544290D01*
X99389186Y-78545544D01*
X99515315Y-78550500D01*
X99594789Y-78553623D01*
X99594791Y-78553623D01*
X99600470Y-78553846D01*
X99606090Y-78553031D01*
X99606092Y-78553031D01*
X99804103Y-78524320D01*
X99804104Y-78524320D01*
X99809730Y-78523504D01*
X99828588Y-78517103D01*
X100004565Y-78457367D01*
X100004568Y-78457366D01*
X100009955Y-78455537D01*
X100014916Y-78452759D01*
X100014922Y-78452756D01*
X100121530Y-78393052D01*
X100194442Y-78352219D01*
X100232165Y-78320846D01*
X100352645Y-78220644D01*
X100357012Y-78217012D01*
X100395254Y-78171031D01*
X100488584Y-78058813D01*
X100488585Y-78058811D01*
X100492219Y-78054442D01*
X100558893Y-77935388D01*
X100592756Y-77874922D01*
X100592759Y-77874916D01*
X100595537Y-77869955D01*
X100608000Y-77833242D01*
X100661675Y-77675118D01*
X100663504Y-77669730D01*
X100676406Y-77580749D01*
X100682783Y-77536769D01*
X100711884Y-77473248D01*
X100770707Y-77435543D01*
X100840577Y-77435627D01*
X100899310Y-77473471D01*
X100928259Y-77537061D01*
X100929500Y-77554562D01*
X100929500Y-78294646D01*
X100932618Y-78320846D01*
X100978061Y-78423153D01*
X101057287Y-78502241D01*
X101067758Y-78506870D01*
X101067759Y-78506871D01*
X101151147Y-78543737D01*
X101151149Y-78543738D01*
X101159673Y-78547506D01*
X101185354Y-78550500D01*
X102974646Y-78550500D01*
X102978300Y-78550065D01*
X102978302Y-78550065D01*
X102983266Y-78549474D01*
X103000846Y-78547382D01*
X103103153Y-78501939D01*
X103182241Y-78422713D01*
X103186871Y-78412241D01*
X103223737Y-78328853D01*
X103223738Y-78328851D01*
X103227506Y-78320327D01*
X103230500Y-78294646D01*
X103230500Y-78165789D01*
X106799996Y-78165789D01*
X106803815Y-78267504D01*
X106805818Y-78320846D01*
X106808913Y-78403295D01*
X106809990Y-78408430D01*
X106809991Y-78408435D01*
X106845126Y-78575886D01*
X106857719Y-78635904D01*
X106859648Y-78640788D01*
X106859649Y-78640792D01*
X106893348Y-78726123D01*
X106945020Y-78856963D01*
X106947741Y-78861447D01*
X106947743Y-78861451D01*
X107015233Y-78972670D01*
X107068319Y-79060153D01*
X107224090Y-79239664D01*
X107407880Y-79390362D01*
X107412441Y-79392958D01*
X107412442Y-79392959D01*
X107609875Y-79505345D01*
X107609880Y-79505347D01*
X107614433Y-79507939D01*
X107837844Y-79589034D01*
X108071725Y-79631326D01*
X108096619Y-79632500D01*
X108263680Y-79632500D01*
X108266296Y-79632278D01*
X108266297Y-79632278D01*
X108435590Y-79617913D01*
X108440823Y-79617469D01*
X108670874Y-79557760D01*
X108887576Y-79460143D01*
X109084732Y-79327409D01*
X109256705Y-79163355D01*
X109398579Y-78972670D01*
X109400958Y-78967991D01*
X109503913Y-78765493D01*
X109503915Y-78765488D01*
X109506295Y-78760807D01*
X109534137Y-78671143D01*
X109575215Y-78538848D01*
X109576775Y-78533824D01*
X109578385Y-78521675D01*
X109607315Y-78303412D01*
X109607315Y-78303408D01*
X109608004Y-78298211D01*
X109599087Y-78060705D01*
X109571700Y-77930176D01*
X109551361Y-77833242D01*
X109551360Y-77833239D01*
X109550281Y-77828096D01*
X109531362Y-77780189D01*
X109499103Y-77698507D01*
X109462980Y-77607037D01*
X109431138Y-77554562D01*
X109342408Y-77408341D01*
X109339681Y-77403847D01*
X109183910Y-77224336D01*
X109000120Y-77073638D01*
X108940858Y-77039904D01*
X108798125Y-76958655D01*
X108798120Y-76958653D01*
X108793567Y-76956061D01*
X108570156Y-76874966D01*
X108336275Y-76832674D01*
X108311381Y-76831500D01*
X108144320Y-76831500D01*
X108141704Y-76831722D01*
X108141703Y-76831722D01*
X108130484Y-76832674D01*
X107967177Y-76846531D01*
X107737126Y-76906240D01*
X107520424Y-77003857D01*
X107323268Y-77136591D01*
X107151295Y-77300645D01*
X107009421Y-77491330D01*
X107007042Y-77496008D01*
X107007042Y-77496009D01*
X106921580Y-77664102D01*
X106901705Y-77703193D01*
X106831225Y-77930176D01*
X106830534Y-77935386D01*
X106830534Y-77935388D01*
X106802652Y-78145752D01*
X106799996Y-78165789D01*
X103230500Y-78165789D01*
X103230500Y-76505354D01*
X103227382Y-76479154D01*
X103181939Y-76376847D01*
X103102713Y-76297759D01*
X103092242Y-76293130D01*
X103092241Y-76293129D01*
X103008853Y-76256263D01*
X103008851Y-76256262D01*
X103000327Y-76252494D01*
X102974646Y-76249500D01*
X101185354Y-76249500D01*
X101181700Y-76249935D01*
X101181698Y-76249935D01*
X101176734Y-76250526D01*
X101159154Y-76252618D01*
X101056847Y-76298061D01*
X100977759Y-76377287D01*
X100973130Y-76387758D01*
X100973129Y-76387759D01*
X100938876Y-76465238D01*
X100932494Y-76479673D01*
X100929500Y-76505354D01*
X100929500Y-77242727D01*
X100909815Y-77309766D01*
X100857011Y-77355521D01*
X100787853Y-77365465D01*
X100724297Y-77336440D01*
X100686523Y-77277662D01*
X100682020Y-77254073D01*
X100679440Y-77225995D01*
X100676081Y-77189440D01*
X100618686Y-76985931D01*
X100525165Y-76796290D01*
X100398651Y-76626867D01*
X100394481Y-76623012D01*
X100394478Y-76623009D01*
X100281920Y-76518962D01*
X100243381Y-76483337D01*
X100237574Y-76479673D01*
X100069363Y-76373539D01*
X100069361Y-76373538D01*
X100064554Y-76370505D01*
X99868160Y-76292152D01*
X99862579Y-76291042D01*
X99862576Y-76291041D01*
X99712049Y-76261100D01*
X99660775Y-76250901D01*
X99655088Y-76250827D01*
X99655083Y-76250826D01*
X99455034Y-76248207D01*
X99455029Y-76248207D01*
X99449346Y-76248133D01*
X99443742Y-76249096D01*
X99443741Y-76249096D01*
X99246550Y-76282979D01*
X99246547Y-76282980D01*
X99240953Y-76283941D01*
X99042575Y-76357127D01*
X99037697Y-76360029D01*
X99037695Y-76360030D01*
X98865740Y-76462332D01*
X98865737Y-76462334D01*
X98860856Y-76465238D01*
X98701881Y-76604655D01*
X98698362Y-76609119D01*
X98698359Y-76609122D01*
X98680782Y-76631419D01*
X98570976Y-76770708D01*
X98472523Y-76957836D01*
X98470837Y-76963267D01*
X98470835Y-76963271D01*
X98418202Y-77132779D01*
X98409820Y-77159773D01*
X98392851Y-77303140D01*
X98365425Y-77367398D01*
X98310974Y-77404346D01*
X98230225Y-77404346D01*
X98230667Y-77404063D01*
X98178057Y-77372081D01*
X98147453Y-77309271D01*
X98146232Y-77299909D01*
X98136601Y-77195100D01*
X98136081Y-77189440D01*
X98078686Y-76985931D01*
X97985165Y-76796290D01*
X97858651Y-76626867D01*
X97854481Y-76623012D01*
X97854478Y-76623009D01*
X97741920Y-76518962D01*
X97703381Y-76483337D01*
X97697574Y-76479673D01*
X97529363Y-76373539D01*
X97529361Y-76373538D01*
X97524554Y-76370505D01*
X97328160Y-76292152D01*
X97322579Y-76291042D01*
X97322576Y-76291041D01*
X97172049Y-76261100D01*
X97120775Y-76250901D01*
X97115088Y-76250827D01*
X97115083Y-76250826D01*
X96915034Y-76248207D01*
X96915029Y-76248207D01*
X96909346Y-76248133D01*
X96903742Y-76249096D01*
X96903741Y-76249096D01*
X96706550Y-76282979D01*
X96706547Y-76282980D01*
X96700953Y-76283941D01*
X96502575Y-76357127D01*
X96497697Y-76360029D01*
X96497695Y-76360030D01*
X96325740Y-76462332D01*
X96325737Y-76462334D01*
X96320856Y-76465238D01*
X96161881Y-76604655D01*
X96158362Y-76609119D01*
X96158359Y-76609122D01*
X96140782Y-76631419D01*
X96030976Y-76770708D01*
X96028325Y-76775747D01*
X95948685Y-76927117D01*
X95900050Y-76977281D01*
X95832015Y-76993187D01*
X95766181Y-76969786D01*
X95726565Y-76921786D01*
X95635890Y-76727333D01*
X95630492Y-76717983D01*
X95501216Y-76533357D01*
X95494281Y-76525093D01*
X95334909Y-76365721D01*
X95326643Y-76358785D01*
X95142008Y-76229502D01*
X95132676Y-76224114D01*
X94928397Y-76128857D01*
X94918264Y-76125168D01*
X94727221Y-76073978D01*
X94713347Y-76074309D01*
X94710000Y-76082125D01*
X94710000Y-78712806D01*
X94210000Y-78712806D01*
X94210000Y-77667830D01*
X94205596Y-77652831D01*
X94204226Y-77651644D01*
X94196668Y-77650000D01*
X93147194Y-77650000D01*
X93133877Y-77653910D01*
X93132667Y-77662326D01*
X91450500Y-77662326D01*
X91450500Y-77132779D01*
X93133978Y-77132779D01*
X93134309Y-77146653D01*
X93142125Y-77150000D01*
X94192170Y-77150000D01*
X94207169Y-77145596D01*
X94208356Y-77144226D01*
X94210000Y-77136668D01*
X94210000Y-76087194D01*
X94206090Y-76073877D01*
X94197674Y-76072667D01*
X94001736Y-76125168D01*
X93991603Y-76128857D01*
X93787333Y-76224110D01*
X93777983Y-76229508D01*
X93593357Y-76358784D01*
X93585093Y-76365719D01*
X93425719Y-76525093D01*
X93418784Y-76533357D01*
X93289508Y-76717983D01*
X93284110Y-76727333D01*
X93188857Y-76931603D01*
X93185168Y-76941736D01*
X93133978Y-77132779D01*
X91450500Y-77132779D01*
X91450500Y-76505354D01*
X91447382Y-76479154D01*
X91401939Y-76376847D01*
X91322713Y-76297759D01*
X91312242Y-76293130D01*
X91312241Y-76293129D01*
X91228853Y-76256263D01*
X91228851Y-76256262D01*
X91220327Y-76252494D01*
X91194646Y-76249500D01*
X89405354Y-76249500D01*
X89401700Y-76249935D01*
X89401698Y-76249935D01*
X89396734Y-76250526D01*
X89379154Y-76252618D01*
X89276847Y-76298061D01*
X89197759Y-76377287D01*
X89193130Y-76387758D01*
X89193129Y-76387759D01*
X89158876Y-76465238D01*
X89152494Y-76479673D01*
X89149500Y-76505354D01*
X89149500Y-77242727D01*
X89129815Y-77309766D01*
X89077011Y-77355521D01*
X89007853Y-77365465D01*
X88944297Y-77336440D01*
X88906523Y-77277662D01*
X88902020Y-77254073D01*
X88899440Y-77225995D01*
X88896081Y-77189440D01*
X88838686Y-76985931D01*
X88745165Y-76796290D01*
X88618651Y-76626867D01*
X88614481Y-76623012D01*
X88614478Y-76623009D01*
X88501920Y-76518962D01*
X88463381Y-76483337D01*
X88457574Y-76479673D01*
X88289363Y-76373539D01*
X88289361Y-76373538D01*
X88284554Y-76370505D01*
X88088160Y-76292152D01*
X88082579Y-76291042D01*
X88082576Y-76291041D01*
X87932049Y-76261100D01*
X87880775Y-76250901D01*
X87875088Y-76250827D01*
X87875083Y-76250826D01*
X87675034Y-76248207D01*
X87675029Y-76248207D01*
X87669346Y-76248133D01*
X87663742Y-76249096D01*
X87663741Y-76249096D01*
X87466550Y-76282979D01*
X87466547Y-76282980D01*
X87460953Y-76283941D01*
X87262575Y-76357127D01*
X87257697Y-76360029D01*
X87257695Y-76360030D01*
X87085740Y-76462332D01*
X87085737Y-76462334D01*
X87080856Y-76465238D01*
X86921881Y-76604655D01*
X86918362Y-76609119D01*
X86918359Y-76609122D01*
X86900782Y-76631419D01*
X86790976Y-76770708D01*
X86692523Y-76957836D01*
X86690837Y-76963267D01*
X86690835Y-76963271D01*
X86638202Y-77132779D01*
X86629820Y-77159773D01*
X86612851Y-77303140D01*
X86585425Y-77367398D01*
X86530974Y-77404346D01*
X86450225Y-77404346D01*
X86450667Y-77404063D01*
X86398057Y-77372081D01*
X86367453Y-77309271D01*
X86366232Y-77299909D01*
X86356601Y-77195100D01*
X86356081Y-77189440D01*
X86298686Y-76985931D01*
X86205165Y-76796290D01*
X86078651Y-76626867D01*
X86074481Y-76623012D01*
X86074478Y-76623009D01*
X85961920Y-76518962D01*
X85923381Y-76483337D01*
X85917574Y-76479673D01*
X85749363Y-76373539D01*
X85749361Y-76373538D01*
X85744554Y-76370505D01*
X85548160Y-76292152D01*
X85542579Y-76291042D01*
X85542576Y-76291041D01*
X85392049Y-76261100D01*
X85340775Y-76250901D01*
X85335088Y-76250827D01*
X85335083Y-76250826D01*
X85135034Y-76248207D01*
X85135029Y-76248207D01*
X85129346Y-76248133D01*
X85123742Y-76249096D01*
X85123741Y-76249096D01*
X84926550Y-76282979D01*
X84926547Y-76282980D01*
X84920953Y-76283941D01*
X84722575Y-76357127D01*
X84717697Y-76360029D01*
X84717695Y-76360030D01*
X84545740Y-76462332D01*
X84545737Y-76462334D01*
X84540856Y-76465238D01*
X84381881Y-76604655D01*
X84378362Y-76609119D01*
X84378359Y-76609122D01*
X84360782Y-76631419D01*
X84250976Y-76770708D01*
X84248325Y-76775747D01*
X84168685Y-76927117D01*
X84120050Y-76977281D01*
X84052015Y-76993187D01*
X83986181Y-76969786D01*
X83946565Y-76921786D01*
X83855890Y-76727333D01*
X83850492Y-76717983D01*
X83721216Y-76533357D01*
X83714281Y-76525093D01*
X83554909Y-76365721D01*
X83546643Y-76358785D01*
X83362008Y-76229502D01*
X83352676Y-76224114D01*
X83148397Y-76128857D01*
X83138264Y-76125168D01*
X82947221Y-76073978D01*
X82933347Y-76074309D01*
X82930000Y-76082125D01*
X82930000Y-78712806D01*
X82430000Y-78712806D01*
X82430000Y-77667830D01*
X82425596Y-77652831D01*
X82424226Y-77651644D01*
X82416668Y-77650000D01*
X81367194Y-77650000D01*
X81353877Y-77653910D01*
X81352667Y-77662326D01*
X73924815Y-77662326D01*
X73902980Y-77607037D01*
X73871138Y-77554562D01*
X73782408Y-77408341D01*
X73779681Y-77403847D01*
X73623910Y-77224336D01*
X73512248Y-77132779D01*
X81353978Y-77132779D01*
X81354309Y-77146653D01*
X81362125Y-77150000D01*
X82412170Y-77150000D01*
X82427169Y-77145596D01*
X82428356Y-77144226D01*
X82430000Y-77136668D01*
X82430000Y-76087194D01*
X82426090Y-76073877D01*
X82417674Y-76072667D01*
X82221736Y-76125168D01*
X82211603Y-76128857D01*
X82007333Y-76224110D01*
X81997983Y-76229508D01*
X81813357Y-76358784D01*
X81805093Y-76365719D01*
X81645719Y-76525093D01*
X81638784Y-76533357D01*
X81509508Y-76717983D01*
X81504110Y-76727333D01*
X81408857Y-76931603D01*
X81405168Y-76941736D01*
X81353978Y-77132779D01*
X73512248Y-77132779D01*
X73440120Y-77073638D01*
X73380858Y-77039904D01*
X73238125Y-76958655D01*
X73238120Y-76958653D01*
X73233567Y-76956061D01*
X73010156Y-76874966D01*
X72776275Y-76832674D01*
X72751381Y-76831500D01*
X72584320Y-76831500D01*
X72581704Y-76831722D01*
X72581703Y-76831722D01*
X72570484Y-76832674D01*
X72407177Y-76846531D01*
X72177126Y-76906240D01*
X71960424Y-77003857D01*
X71763268Y-77136591D01*
X71591295Y-77300645D01*
X71449421Y-77491330D01*
X71447042Y-77496008D01*
X71447042Y-77496009D01*
X71361580Y-77664102D01*
X71341705Y-77703193D01*
X71271225Y-77930176D01*
X71270534Y-77935386D01*
X71270534Y-77935388D01*
X71242652Y-78145752D01*
X71239996Y-78165789D01*
X69391970Y-78165789D01*
X69405994Y-77898195D01*
X69407351Y-77885288D01*
X69441792Y-77667830D01*
X69458624Y-77561561D01*
X69461318Y-77548882D01*
X69546156Y-77232265D01*
X69550165Y-77219927D01*
X69559413Y-77195837D01*
X69667625Y-76913934D01*
X69672903Y-76902079D01*
X69700534Y-76847851D01*
X69821706Y-76610036D01*
X69828196Y-76598796D01*
X70006704Y-76323918D01*
X70014333Y-76313417D01*
X70220605Y-76058692D01*
X70229290Y-76049047D01*
X70461047Y-75817290D01*
X70470692Y-75808605D01*
X70725417Y-75602333D01*
X70735918Y-75594704D01*
X71010796Y-75416196D01*
X71022036Y-75409706D01*
X71145208Y-75346947D01*
X71314081Y-75260902D01*
X71325936Y-75255624D01*
X71347647Y-75247290D01*
X71631932Y-75138163D01*
X71644265Y-75134156D01*
X71960882Y-75049318D01*
X71973561Y-75046624D01*
X72193799Y-75011742D01*
X72297288Y-74995351D01*
X72310195Y-74993994D01*
X72609622Y-74978302D01*
X72625159Y-74979252D01*
X72633316Y-74979252D01*
X72644000Y-74981136D01*
X72656604Y-74978914D01*
X72679900Y-74977044D01*
X108165624Y-75483983D01*
G37*
%TD.AperFunction*%
%TD*%
M02*
