M48
; DRILL file {KiCad (6.0.10)} date Sun Jan 15 22:26:45 2023
; FORMAT={-:-/ absolute / metric / decimal}
; #@! TF.CreationDate,2023-01-15T22:26:45+05:30
; #@! TF.GenerationSoftware,Kicad,Pcbnew,(6.0.10)
; #@! TF.FileFunction,MixedPlating,1,2
FMAT,2
METRIC
; #@! TA.AperFunction,Plated,PTH,ViaDrill
T1C0.400
; #@! TA.AperFunction,Plated,PTH,ComponentDrill
T2C0.550
; #@! TA.AperFunction,Plated,PTH,ComponentDrill
T3C0.850
; #@! TA.AperFunction,Plated,PTH,ComponentDrill
T4C1.000
; #@! TA.AperFunction,NonPlated,NPTH,ComponentDrill
T5C0.800
; #@! TA.AperFunction,NonPlated,NPTH,ComponentDrill
T6C0.900
; #@! TA.AperFunction,NonPlated,NPTH,ComponentDrill
T7C2.200
%
G90
G05
T1
X74.0Y-82.4
X78.0Y-88.0
X80.9Y-95.6
X81.1Y-89.9
X82.8Y-85.4
X86.2Y-90.9
X86.7Y-87.5
X86.9Y-100.8
X87.4Y-81.3
X88.3Y-96.2
X88.775Y-100.825
X90.3Y-101.0
X90.6Y-81.3
X91.1Y-92.9
X92.1Y-101.0
X92.3Y-81.3
X95.1Y-81.3
X96.0Y-88.1
X96.5Y-81.3
X99.4Y-81.3
X101.1Y-97.9
X101.3Y-93.2
X101.3Y-94.2
X102.0Y-97.9
X103.1Y-87.6
X105.5Y-98.3
X109.5Y-96.6
T4
X82.68Y-77.4
X84.3Y-105.3
X85.22Y-77.4
X86.84Y-105.3
X87.76Y-77.4
X89.38Y-105.3
X90.3Y-77.4
X91.92Y-105.3
X94.46Y-77.4
X97.0Y-77.4
X99.54Y-77.4
X102.08Y-77.4
T5
X106.2Y-86.4
X106.2Y-91.4
T6
X71.67Y-84.25
X71.67Y-87.25
T7
X72.644Y-78.232
X72.644Y-105.156
X108.204Y-78.232
X108.204Y-105.156
T2
G00X108.625Y-85.025
M15
G01X109.275Y-85.025
M16
G05
G00X108.625Y-92.775
M15
G01X109.275Y-92.775
M16
G05
T3
G00X104.875Y-85.175
M15
G01X105.425Y-85.175
M16
G05
G00X104.875Y-92.625
M15
G01X105.425Y-92.625
M16
G05
T0
M30
